<?xml version="1.0" encoding="iso-8859-1"?>
<!-- Generator: Adobe Illustrator 16.0.0, SVG Export Plug-In . SVG Version: 6.00 Build 0)  -->
<!DOCTYPE svg PUBLIC "-//W3C//DTD SVG 1.1//EN" "http://www.w3.org/Graphics/SVG/1.1/DTD/svg11.dtd">
<svg version="1.1" id="Layer_1" xmlns="http://www.w3.org/2000/svg" xmlns:xlink="http://www.w3.org/1999/xlink" x="0px" y="0px"
	 width="750px" height="1334px" viewBox="0 0 750 1334" style="enable-background:new 0 0 750 1334;" xml:space="preserve">
<g>
	<defs>
		<rect id="SVGID_1_" width="750" height="1334"/>
	</defs>
	<clipPath id="SVGID_2_">
		<use xlink:href="#SVGID_1_"  style="overflow:visible;"/>
	</clipPath>
	<g style="clip-path:url(#SVGID_2_);">
		<defs>
			<rect id="SVGID_3_" x="-17.44" y="-8.42" width="784.88" height="1124.677"/>
		</defs>
		<clipPath id="SVGID_4_">
			<use xlink:href="#SVGID_3_"  style="overflow:visible;"/>
		</clipPath>
		<g style="clip-path:url(#SVGID_4_);">
			<defs>
				<rect id="SVGID_5_" x="-730.259" y="-90.253" width="1726.358" height="1709.471"/>
			</defs>
			<clipPath id="SVGID_6_">
				<use xlink:href="#SVGID_5_"  style="overflow:visible;"/>
			</clipPath>
			<g style="clip-path:url(#SVGID_6_);">
				
					<radialGradient id="SVGID_7_" cx="312.6553" cy="1477" r="899.8842" gradientTransform="matrix(-1.094 0 0 -1.0917 820.7617 2516.9014)" gradientUnits="userSpaceOnUse">
					<stop  offset="0" style="stop-color:#FFFFFF"/>
					<stop  offset="0.3592" style="stop-color:#FFFFFF"/>
					<stop  offset="0.4183" style="stop-color:#FFFFFF"/>
					<stop  offset="0.6412" style="stop-color:#FCFBFC"/>
					<stop  offset="0.7213" style="stop-color:#F3F3F3"/>
					<stop  offset="0.7766" style="stop-color:#E8E7E8"/>
					<stop  offset="0.866" style="stop-color:#CFD0D1"/>
					<stop  offset="0.8757" style="stop-color:#C6C6C8"/>
					<stop  offset="0.8876" style="stop-color:#B2B1B2"/>
					<stop  offset="0.9005" style="stop-color:#949193"/>
					<stop  offset="0.9142" style="stop-color:#6F6B6C"/>
					<stop  offset="0.9283" style="stop-color:#474545"/>
					<stop  offset="0.9347" style="stop-color:#363435"/>
				</radialGradient>
				<rect x="-699.132" y="-85.073" style="fill:url(#SVGID_7_);" width="1697.052" height="1697.142"/>
				
					<radialGradient id="SVGID_8_" cx="117.1826" cy="450.4629" r="899.9001" gradientTransform="matrix(0 -1.094 1.1199 0 -511.9072 1221.0234)" gradientUnits="userSpaceOnUse">
					<stop  offset="0" style="stop-color:#FFFFFF"/>
					<stop  offset="0.3592" style="stop-color:#FFFFFF"/>
					<stop  offset="0.4183" style="stop-color:#FFFFFF"/>
					<stop  offset="0.6412" style="stop-color:#FCFBFC"/>
					<stop  offset="0.7213" style="stop-color:#F3F3F3"/>
					<stop  offset="0.7766" style="stop-color:#E8E7E8"/>
					<stop  offset="0.866" style="stop-color:#CFD0D1"/>
					<stop  offset="0.8757" style="stop-color:#C6C6C8"/>
					<stop  offset="0.8876" style="stop-color:#B2B1B2"/>
					<stop  offset="0.9005" style="stop-color:#949193"/>
					<stop  offset="0.9142" style="stop-color:#6F6B6C"/>
					<stop  offset="0.9283" style="stop-color:#474545"/>
					<stop  offset="0.9347" style="stop-color:#363435"/>
				</radialGradient>
				<rect x="-733.348" y="-85.022" style="fill:url(#SVGID_8_);" width="1741.053" height="1697.051"/>
				<linearGradient id="SVGID_9_" gradientUnits="userSpaceOnUse" x1="-715.4673" y1="784.3359" x2="1010.0865" y2="773.8143">
					<stop  offset="0" style="stop-color:#1F6376"/>
					<stop  offset="0.4701" style="stop-color:#87D0D7"/>
					<stop  offset="1" style="stop-color:#FFFFFF"/>
				</linearGradient>
				<rect x="-730.494" y="-80.461" style="opacity:0.7;fill:url(#SVGID_9_);" width="1738.199" height="1719.177"/>
				
					<linearGradient id="SVGID_10_" gradientUnits="userSpaceOnUse" x1="-431.1133" y1="1936.8623" x2="1312.3801" y2="1926.2312" gradientTransform="matrix(0 1 -1 0 2069.9355 358.7871)">
					<stop  offset="0" style="stop-color:#1F6376"/>
					<stop  offset="0.4701" style="stop-color:#87D0D7"/>
					<stop  offset="1" style="stop-color:#FFFFFF"/>
				</linearGradient>
				<polygon style="opacity:0.5;fill:url(#SVGID_10_);" points="997.92,-87.563 -721.253,-87.563 -721.253,1668.802 
					997.92,1668.815 				"/>
				<radialGradient id="SVGID_11_" cx="413.2559" cy="-18.6475" r="97.0947" gradientUnits="userSpaceOnUse">
					<stop  offset="0" style="stop-color:#FFFFFF"/>
					<stop  offset="1" style="stop-color:#FFFFFF"/>
				</radialGradient>
				<polygon style="opacity:0.43;fill:url(#SVGID_11_);" points="296.091,-90.253 311.138,13.558 530.42,52.958 417.75,-90.253 				
					"/>
				<radialGradient id="SVGID_12_" cx="-655.2583" cy="26.4492" r="98.1829" gradientUnits="userSpaceOnUse">
					<stop  offset="0" style="stop-color:#FFFFFF"/>
					<stop  offset="1" style="stop-color:#FFFFFF"/>
				</radialGradient>
				<polygon style="opacity:0.43;fill:url(#SVGID_12_);" points="-730.494,143.151 -580.023,124.463 -611.007,-90.253 
					-730.494,-90.253 				"/>
				<radialGradient id="SVGID_13_" cx="-577.0376" cy="1079.0283" r="141.0621" gradientUnits="userSpaceOnUse">
					<stop  offset="0" style="stop-color:#FFFFFF"/>
					<stop  offset="1" style="stop-color:#FFFFFF"/>
				</radialGradient>
				<polygon style="opacity:0.43;fill:url(#SVGID_13_);" points="-730.494,1206.497 -423.582,1206.497 -460.396,951.56 
					-730.494,985.159 				"/>
				<radialGradient id="SVGID_14_" cx="-595.4229" cy="284.8921" r="318.9168" gradientUnits="userSpaceOnUse">
					<stop  offset="0" style="stop-color:#FFFFFF"/>
					<stop  offset="1" style="stop-color:#FFFFFF"/>
				</radialGradient>
				<polygon style="opacity:0.43;fill:url(#SVGID_14_);" points="-730.494,715.208 -460.352,681.585 -579.926,-145.424 
					-730.494,262.307 				"/>
				<radialGradient id="SVGID_15_" cx="-104.6064" cy="331.2773" r="366.5765" gradientUnits="userSpaceOnUse">
					<stop  offset="0" style="stop-color:#FFFFFF"/>
					<stop  offset="1" style="stop-color:#FFFFFF"/>
				</radialGradient>
				<polygon style="opacity:0.43;fill:url(#SVGID_15_);" points="370.803,426.764 -520.05,538.021 -580.016,124.534 				"/>
				<radialGradient id="SVGID_16_" cx="-204.2192" cy="52.9614" r="366.5267" gradientUnits="userSpaceOnUse">
					<stop  offset="0" style="stop-color:#FFFFFF"/>
					<stop  offset="1" style="stop-color:#FFFFFF"/>
				</radialGradient>
				<polygon style="opacity:0.43;fill:url(#SVGID_16_);" points="-679.543,-42.858 211.346,-153.801 271.105,259.724 				"/>
				<radialGradient id="SVGID_17_" cx="-51.1167" cy="744.5391" r="362.3393" gradientUnits="userSpaceOnUse">
					<stop  offset="0" style="stop-color:#FFFFFF"/>
					<stop  offset="1" style="stop-color:#FFFFFF"/>
				</radialGradient>
				<polygon style="opacity:0.43;fill:url(#SVGID_17_);" points="417.75,835.856 -519.983,537.794 -460.017,951.284 417.75,841.653 
									"/>
				<radialGradient id="SVGID_18_" cx="-104.6064" cy="729.5859" r="381.1884" gradientUnits="userSpaceOnUse">
					<stop  offset="0" style="stop-color:#FFFFFF"/>
					<stop  offset="1" style="stop-color:#FFFFFF"/>
				</radialGradient>
				<polygon style="opacity:0.43;fill:url(#SVGID_18_);" points="348.434,815.308 301.861,493.136 -589.065,604.075 
					379.853,966.036 				"/>
				<radialGradient id="SVGID_19_" cx="33.8779" cy="1138.1533" r="297.4908" gradientUnits="userSpaceOnUse">
					<stop  offset="0" style="stop-color:#FFFFFF"/>
					<stop  offset="1" style="stop-color:#FFFFFF"/>
				</radialGradient>
				<polygon style="opacity:0.43;fill:url(#SVGID_19_);" points="434.832,1265.579 -367.076,1010.728 -330.108,1265.579 				"/>
				<radialGradient id="SVGID_20_" cx="-245.3921" cy="926.6729" r="336.0804" gradientUnits="userSpaceOnUse">
					<stop  offset="0" style="stop-color:#FFFFFF"/>
					<stop  offset="1" style="stop-color:#FFFFFF"/>
				</radialGradient>
				<polygon style="opacity:0.43;fill:url(#SVGID_20_);" points="193.612,744.532 -684.396,853.876 116.642,1108.813 
					193.612,1108.813 				"/>
				<radialGradient id="SVGID_21_" cx="-149.9023" cy="17.2725" r="334.7396" gradientUnits="userSpaceOnUse">
					<stop  offset="0" style="stop-color:#FFFFFF"/>
					<stop  offset="1" style="stop-color:#FFFFFF"/>
				</radialGradient>
				<polygon style="opacity:0.43;fill:url(#SVGID_21_);" points="-610.923,-90.253 -579.735,124.798 311.118,13.521 
					-15.392,-90.253 				"/>
				<radialGradient id="SVGID_22_" cx="147.7271" cy="-38.2158" r="121.3293" gradientUnits="userSpaceOnUse">
					<stop  offset="0" style="stop-color:#FFFFFF"/>
					<stop  offset="1" style="stop-color:#FFFFFF"/>
				</radialGradient>
				<polygon style="opacity:0.43;fill:url(#SVGID_22_);" points="-15.777,-90.253 311.231,13.822 296.185,-90.253 				"/>
				<radialGradient id="SVGID_23_" cx="313.3838" cy="1107.9629" r="101.4921" gradientUnits="userSpaceOnUse">
					<stop  offset="0" style="stop-color:#FFFFFF"/>
					<stop  offset="1" style="stop-color:#FFFFFF"/>
				</radialGradient>
				<polygon style="opacity:0.43;fill:url(#SVGID_23_);" points="417.75,1049.114 267.504,1009.429 209.017,1206.497 
					417.75,1206.497 				"/>
				<radialGradient id="SVGID_24_" cx="-494.396" cy="1184.2012" r="66.2395" gradientUnits="userSpaceOnUse">
					<stop  offset="0" style="stop-color:#FFFFFF"/>
					<stop  offset="1" style="stop-color:#FFFFFF"/>
				</radialGradient>
				<polygon style="opacity:0.43;fill:url(#SVGID_24_);" points="-403.411,1206.497 -572.148,1161.905 -585.381,1206.497 				"/>
				<radialGradient id="SVGID_25_" cx="-104.6016" cy="1079.0234" r="294.8203" gradientUnits="userSpaceOnUse">
					<stop  offset="0" style="stop-color:#FFFFFF"/>
					<stop  offset="1" style="stop-color:#FFFFFF"/>
				</radialGradient>
				<polygon style="opacity:0.43;fill:url(#SVGID_25_);" points="205.048,1274.788 263.521,1077.763 -472.725,883.259 
					-15.218,1274.788 				"/>
				<radialGradient id="SVGID_26_" cx="-599.5928" cy="975.9209" r="187.4839" gradientUnits="userSpaceOnUse">
					<stop  offset="0" style="stop-color:#FFFFFF"/>
					<stop  offset="1" style="stop-color:#FFFFFF"/>
				</radialGradient>
				<polygon style="opacity:0.43;fill:url(#SVGID_26_);" points="-730.494,745.345 -730.494,1206.497 -585.204,1206.497 
					-468.692,814.64 				"/>
				<radialGradient id="SVGID_27_" cx="-680.3818" cy="177.5957" r="133.3388" gradientUnits="userSpaceOnUse">
					<stop  offset="0" style="stop-color:#FFFFFF"/>
					<stop  offset="1" style="stop-color:#FFFFFF"/>
				</radialGradient>
				<polygon style="opacity:0.43;fill:url(#SVGID_27_);" points="-730.494,-4.193 -730.494,359.385 -630.27,22.336 				"/>
				<radialGradient id="SVGID_28_" cx="105.4233" cy="112.2266" r="296.8888" gradientUnits="userSpaceOnUse">
					<stop  offset="0" style="stop-color:#FFFFFF"/>
					<stop  offset="1" style="stop-color:#FFFFFF"/>
				</radialGradient>
				<polygon style="opacity:0.43;fill:url(#SVGID_28_);" points="-199.976,-90.253 -262.392,119.762 473.238,314.707 
					417.75,266.558 1.154,-90.253 				"/>
				<radialGradient id="SVGID_29_" cx="-181.2593" cy="564.9619" r="318.7195" gradientUnits="userSpaceOnUse">
					<stop  offset="0" style="stop-color:#FFFFFF"/>
					<stop  offset="1" style="stop-color:#FFFFFF"/>
				</radialGradient>
				<polygon style="opacity:0.43;fill:url(#SVGID_29_);" points="106.002,217.622 -100.442,912.302 -468.521,814.899 				"/>
				<radialGradient id="SVGID_30_" cx="-496.374" cy="467.2539" r="296.1894" gradientUnits="userSpaceOnUse">
					<stop  offset="0" style="stop-color:#FFFFFF"/>
					<stop  offset="1" style="stop-color:#FFFFFF"/>
				</radialGradient>
				<polygon style="opacity:0.43;fill:url(#SVGID_30_);" points="-730.494,606.708 -730.494,745.306 -468.685,814.593 
					-262.254,119.916 				"/>
				<radialGradient id="SVGID_31_" cx="177.7354" cy="654.4346" r="318.7736" gradientUnits="userSpaceOnUse">
					<stop  offset="0" style="stop-color:#FFFFFF"/>
					<stop  offset="1" style="stop-color:#FFFFFF"/>
				</radialGradient>
				<polygon style="opacity:0.43;fill:url(#SVGID_31_);" points="455.963,299.72 -100.492,911.733 267.591,1009.149 417.75,503.885 
									"/>
				<radialGradient id="SVGID_32_" cx="-679.5449" cy="111.6523" r="147.2444" gradientUnits="userSpaceOnUse">
					<stop  offset="0" style="stop-color:#FFFFFF"/>
					<stop  offset="1" style="stop-color:#FFFFFF"/>
				</radialGradient>
				<polygon style="opacity:0.43;fill:url(#SVGID_32_);" points="-730.494,313.559 -628.597,284.911 -711.658,-90.253 
					-730.494,-90.253 				"/>
				<radialGradient id="SVGID_33_" cx="-533.3315" cy="1177.8955" r="79.2378" gradientUnits="userSpaceOnUse">
					<stop  offset="0" style="stop-color:#FFFFFF"/>
					<stop  offset="1" style="stop-color:#FFFFFF"/>
				</radialGradient>
				<polygon style="opacity:0.43;fill:url(#SVGID_33_);" points="-424.984,1206.497 -437.618,1149.294 -641.679,1206.497 				"/>
				<radialGradient id="SVGID_34_" cx="-286.7505" cy="97.3203" r="328.4632" gradientUnits="userSpaceOnUse">
					<stop  offset="0" style="stop-color:#FFFFFF"/>
					<stop  offset="1" style="stop-color:#FFFFFF"/>
				</radialGradient>
				<polygon style="opacity:0.43;fill:url(#SVGID_34_);" points="-711.712,-90.253 -628.664,284.894 138.211,69.29 
					-497.704,-90.253 				"/>
				<radialGradient id="SVGID_35_" cx="288.146" cy="10.7012" r="149.0822" gradientUnits="userSpaceOnUse">
					<stop  offset="0" style="stop-color:#FFFFFF"/>
					<stop  offset="1" style="stop-color:#FFFFFF"/>
				</radialGradient>
				<polygon style="opacity:0.43;fill:url(#SVGID_35_);" points="103.054,-90.253 138.378,69.642 473.238,111.656 417.75,-90.253 
									"/>
				<radialGradient id="SVGID_36_" cx="-179.5908" cy="-10.3291" r="231.8043" gradientUnits="userSpaceOnUse">
					<stop  offset="0" style="stop-color:#FFFFFF"/>
					<stop  offset="1" style="stop-color:#FFFFFF"/>
				</radialGradient>
				<polygon style="opacity:0.43;fill:url(#SVGID_36_);" points="-497.52,-90.253 138.338,69.595 103,-90.253 				"/>
				<radialGradient id="SVGID_37_" cx="-291.5698" cy="1229.8057" r="307.9283" gradientUnits="userSpaceOnUse">
					<stop  offset="0" style="stop-color:#FFFFFF"/>
					<stop  offset="1" style="stop-color:#FFFFFF"/>
				</radialGradient>
				<polygon style="opacity:0.43;fill:url(#SVGID_37_);" points="122.026,1366.106 61.776,1093.505 -705.166,1308.759 
					-477.055,1366.106 				"/>
				<radialGradient id="SVGID_38_" cx="-53.6519" cy="555.3291" r="369.3406" gradientUnits="userSpaceOnUse">
					<stop  offset="0" style="stop-color:#FFFFFF"/>
					<stop  offset="1" style="stop-color:#FFFFFF"/>
				</radialGradient>
				<polygon style="opacity:0.43;fill:url(#SVGID_38_);" points="-54.385,1041.19 -245.391,177.07 138.087,69.467 				"/>
				<radialGradient id="SVGID_39_" cx="-628.5952" cy="839" r="341.9077" gradientUnits="userSpaceOnUse">
					<stop  offset="0" style="stop-color:#FFFFFF"/>
					<stop  offset="1" style="stop-color:#FFFFFF"/>
				</radialGradient>
				<polygon style="opacity:0.43;fill:url(#SVGID_39_);" points="-673.332,378.227 -775.186,893.487 -775.186,1299.774 
					-686.662,1299.774 -482.005,1242.245 				"/>
				<radialGradient id="SVGID_40_" cx="-577.0376" cy="1511.25" r="141.0608" gradientUnits="userSpaceOnUse">
					<stop  offset="0" style="stop-color:#FFFFFF"/>
					<stop  offset="1" style="stop-color:#FFFFFF"/>
				</radialGradient>
				<polygon style="opacity:0.43;fill:url(#SVGID_40_);" points="-730.494,1638.716 -423.582,1638.716 -460.396,1383.784 
					-730.494,1417.386 				"/>
				<radialGradient id="SVGID_41_" cx="-59.54" cy="1511.2832" r="297.4955" gradientUnits="userSpaceOnUse">
					<stop  offset="0" style="stop-color:#FFFFFF"/>
					<stop  offset="1" style="stop-color:#FFFFFF"/>
				</radialGradient>
				<polygon style="opacity:0.43;fill:url(#SVGID_41_);" points="341.419,1638.716 -460.499,1383.851 -423.525,1638.716 				"/>
				<radialGradient id="SVGID_42_" cx="-245.3921" cy="1358.8916" r="336.0804" gradientUnits="userSpaceOnUse">
					<stop  offset="0" style="stop-color:#FFFFFF"/>
					<stop  offset="1" style="stop-color:#FFFFFF"/>
				</radialGradient>
				<polygon style="opacity:0.43;fill:url(#SVGID_42_);" points="193.612,1176.751 -684.396,1286.087 116.642,1541.032 
					193.612,1541.032 				"/>
				<radialGradient id="SVGID_43_" cx="313.3838" cy="1540.1758" r="101.4949" gradientUnits="userSpaceOnUse">
					<stop  offset="0" style="stop-color:#FFFFFF"/>
					<stop  offset="1" style="stop-color:#FFFFFF"/>
				</radialGradient>
				<polygon style="opacity:0.43;fill:url(#SVGID_43_);" points="417.75,1481.333 267.504,1441.636 209.017,1638.716 
					417.75,1638.716 				"/>
				<radialGradient id="SVGID_44_" cx="-494.396" cy="1616.4199" r="66.2395" gradientUnits="userSpaceOnUse">
					<stop  offset="0" style="stop-color:#FFFFFF"/>
					<stop  offset="1" style="stop-color:#FFFFFF"/>
				</radialGradient>
				<polygon style="opacity:0.43;fill:url(#SVGID_44_);" points="-403.411,1638.716 -572.148,1594.124 -585.381,1638.716 				"/>
				<radialGradient id="SVGID_45_" cx="-100.582" cy="1442.9541" r="294.8172" gradientUnits="userSpaceOnUse">
					<stop  offset="0" style="stop-color:#FFFFFF"/>
					<stop  offset="1" style="stop-color:#FFFFFF"/>
				</radialGradient>
				<polygon style="opacity:0.43;fill:url(#SVGID_45_);" points="209.07,1638.716 267.537,1441.688 -468.702,1247.192 
					-11.189,1638.716 				"/>
				<radialGradient id="SVGID_46_" cx="-599.5928" cy="1408.1416" r="187.4827" gradientUnits="userSpaceOnUse">
					<stop  offset="0" style="stop-color:#FFFFFF"/>
					<stop  offset="1" style="stop-color:#FFFFFF"/>
				</radialGradient>
				<polygon style="opacity:0.43;fill:url(#SVGID_46_);" points="-730.494,1177.567 -730.494,1638.716 -585.204,1638.716 
					-468.692,1246.87 				"/>
				<radialGradient id="SVGID_47_" cx="-291.5693" cy="1442.8203" r="241.8247" gradientUnits="userSpaceOnUse">
					<stop  offset="0" style="stop-color:#FFFFFF"/>
					<stop  offset="1" style="stop-color:#FFFFFF"/>
				</radialGradient>
				<polygon style="opacity:0.43;fill:url(#SVGID_47_);" points="-11.242,1638.716 -468.665,1246.925 -571.897,1594.245 
					-403.823,1638.716 				"/>
				<radialGradient id="SVGID_48_" cx="-533.3315" cy="1610.1074" r="79.2391" gradientUnits="userSpaceOnUse">
					<stop  offset="0" style="stop-color:#FFFFFF"/>
					<stop  offset="1" style="stop-color:#FFFFFF"/>
				</radialGradient>
				<polygon style="opacity:0.43;fill:url(#SVGID_48_);" points="-424.984,1638.716 -437.618,1581.499 -641.679,1638.716 				"/>
				<radialGradient id="SVGID_49_" cx="-23.7256" cy="1502.4111" r="307.9302" gradientUnits="userSpaceOnUse">
					<stop  offset="0" style="stop-color:#FFFFFF"/>
					<stop  offset="1" style="stop-color:#FFFFFF"/>
				</radialGradient>
				<polygon style="opacity:0.43;fill:url(#SVGID_49_);" points="389.872,1638.716 329.625,1366.106 -437.323,1581.366 
					-209.206,1638.716 				"/>
				<radialGradient id="SVGID_50_" cx="-53.6519" cy="987.5469" r="369.3451" gradientUnits="userSpaceOnUse">
					<stop  offset="0" style="stop-color:#FFFFFF"/>
					<stop  offset="1" style="stop-color:#FFFFFF"/>
				</radialGradient>
				<polygon style="opacity:0.43;fill:url(#SVGID_50_);" points="-54.385,1473.415 -245.391,609.288 138.087,501.679 				"/>
				<radialGradient id="SVGID_51_" cx="246.7876" cy="1149.2871" r="369.3438" gradientUnits="userSpaceOnUse">
					<stop  offset="0" style="stop-color:#FFFFFF"/>
					<stop  offset="1" style="stop-color:#FFFFFF"/>
				</radialGradient>
				<polygon style="opacity:0.43;fill:url(#SVGID_51_);" points="246.058,1635.153 55.049,771.028 438.526,663.421 				"/>
				
					<radialGradient id="SVGID_52_" cx="400.7588" cy="1425.8047" r="369.3447" gradientTransform="matrix(1 0 0 -1 0 2602.5625)" gradientUnits="userSpaceOnUse">
					<stop  offset="0" style="stop-color:#FFFFFF"/>
					<stop  offset="1" style="stop-color:#FFFFFF"/>
				</radialGradient>
				<polygon style="opacity:0.43;fill:url(#SVGID_52_);" points="400.026,690.892 209.017,1555.015 592.501,1662.624 				"/>
				<radialGradient id="SVGID_53_" cx="-583.9033" cy="1177.9326" r="341.9135" gradientUnits="userSpaceOnUse">
					<stop  offset="0" style="stop-color:#FFFFFF"/>
					<stop  offset="1" style="stop-color:#FFFFFF"/>
				</radialGradient>
				<polygon style="opacity:0.43;fill:url(#SVGID_53_);" points="-628.64,717.149 -730.494,1232.413 -730.494,1638.716 
					-641.97,1638.716 -437.313,1581.173 				"/>
				<radialGradient id="SVGID_54_" cx="-386.7412" cy="1115.2109" r="341.9073" gradientUnits="userSpaceOnUse">
					<stop  offset="0" style="stop-color:#FFFFFF"/>
					<stop  offset="1" style="stop-color:#FFFFFF"/>
				</radialGradient>
				<polygon style="opacity:0.43;fill:url(#SVGID_54_);" points="-431.483,654.437 -533.33,1169.688 -533.33,1575.985 
					-444.81,1575.985 -240.153,1518.448 				"/>
				<polygon style="opacity:0.5;fill:#FFFFFF;" points="597.515,1638.716 153.492,1202.507 502.964,844.599 11.712,688.532 
					549.543,418.052 698.056,327.548 1076.326,1638.716 				"/>
				<polygon style="opacity:0.5;fill:#FFFFFF;" points="329.103,1191.724 784.936,852.892 362.972,681.435 719.475,180.132 
					156.939,124.032 510.588,-22.068 91.953,-105.019 996.099,-92.432 996.099,1234.95 				"/>
				<radialGradient id="SVGID_55_" cx="106.0059" cy="299.7188" r="351.4117" gradientUnits="userSpaceOnUse">
					<stop  offset="0" style="stop-color:#FFFFFF"/>
					<stop  offset="1" style="stop-color:#FFFFFF"/>
				</radialGradient>
				<polygon style="opacity:0.43;fill:url(#SVGID_55_);" points="-367.076,177.924 -271.715,451.948 579.088,208.312 
					128.539,147.489 				"/>
				<radialGradient id="SVGID_56_" cx="246.791" cy="313.5566" r="389.0934" gradientUnits="userSpaceOnUse">
					<stop  offset="0" style="stop-color:#FFFFFF"/>
					<stop  offset="1" style="stop-color:#FFFFFF"/>
				</radialGradient>
				<polygon style="opacity:0.43;fill:url(#SVGID_56_);" points="639.636,698.862 -146.054,291.564 17.167,-71.75 				"/>
				<g>
					<path style="opacity:0.4;fill:#FFFFFF;" d="M578.271,942.669c21.078,125.516-63.038,244.209-187.816,265.139
						c-124.791,20.918-243.02-63.842-264.097-189.369c-21.071-125.508,63.012-244.188,187.82-265.104
						C438.941,732.425,557.2,817.183,578.271,942.669z"/>
					<path style="opacity:0.4;fill:#FFFFFF;" d="M747.092,976.284c14.912,88.842-44.618,172.891-132.958,187.695
						c-88.359,14.793-172.06-45.213-186.973-134.061c-14.933-88.855,44.604-172.877,132.95-187.684
						C648.458,827.409,732.165,887.423,747.092,976.284z"/>
					<path style="opacity:0.4;fill:#FFFFFF;" d="M164.178,1340.022c2.61,15.475-7.784,30.127-23.172,32.691
						c-15.398,2.604-29.983-7.846-32.58-23.348c-2.587-15.475,7.778-30.119,23.156-32.684
						C146.976,1314.106,161.584,1324.562,164.178,1340.022z"/>
					<path style="opacity:0.4;fill:#FFFFFF;" d="M297.925,1486.374c2.61,15.488-7.765,30.119-23.159,32.689
						c-15.388,2.604-29.986-7.852-32.593-23.34c-2.577-15.494,7.814-30.127,23.196-32.717
						C280.73,1460.431,295.328,1470.886,297.925,1486.374z"/>
					<path style="opacity:0.4;fill:#FFFFFF;" d="M987.17,907.556c-1.198,0.041-2.383,0.027-3.601,0.242
						c-15.382,2.596-25.764,17.242-23.146,32.717c2.242,13.533,13.655,23.193,26.747,23.715V907.556z"/>
					<path style="opacity:0.4;fill:#FFFFFF;" d="M293.922,1429.386c5.716,33.969-17.061,66.084-50.823,71.754
						c-33.778,5.656-65.789-17.283-71.489-51.238c-5.719-33.969,17.072-66.104,50.84-71.727
						C256.212,1372.485,288.22,1395.437,293.922,1429.386z"/>
					<path style="opacity:0.4;fill:#FFFFFF;" d="M72.91,1669.679h97.339c10.411-13.307,15.475-30.803,12.439-48.842
						c-5.689-33.955-37.69-56.895-71.469-51.217c-33.765,5.648-56.522,37.764-50.823,71.746
						C62.201,1652.095,66.642,1661.706,72.91,1669.679z"/>
					<path style="opacity:0.4;fill:#FFFFFF;" d="M191.731,1504.165c-10.974-65.441-72.657-109.645-137.73-98.742
						c-29.742,4.994-54.959,20.703-72.623,42.471v151.746c26.274,32.375,68.533,50.146,112.412,42.777
						C158.86,1631.521,202.725,1569.606,191.731,1504.165z"/>
					<path style="opacity:0.4;fill:#FFFFFF;" d="M890.396,933.935c25.609,152.75-76.739,297.213-228.619,322.662
						c-151.873,25.469-295.767-77.703-321.403-230.475c-25.622-152.729,76.679-297.168,228.566-322.623
						C720.82,678.021,864.715,781.226,890.396,933.935z"/>
				</g>
				<g>
					<path style="opacity:0.4;fill:#FFFFFF;" d="M392.142,879.552c12.944,77.094-38.742,150.006-115.368,162.85
						c-76.652,12.838-149.279-39.217-162.214-116.318c-12.945-77.094,38.698-149.979,115.357-162.822
						C306.546,750.396,379.183,802.456,392.142,879.552z"/>
					<path style="opacity:0.4;fill:#FFFFFF;" d="M495.822,900.187c9.17,54.578-27.403,106.205-81.673,115.307
						c-54.264,9.076-105.675-27.783-114.839-82.342c-9.163-54.59,27.396-106.203,81.666-115.301
						C435.247,808.749,486.665,845.616,495.822,900.187z"/>
					<path style="opacity:0.4;fill:#FFFFFF;" d="M137.779,1123.612c1.606,9.504-4.772,18.508-14.224,20.086
						c-9.461,1.594-18.423-4.826-20.01-14.35c-1.596-9.506,4.772-18.494,14.22-20.066
						C127.23,1107.683,136.196,1114.114,137.779,1123.612z"/>
					<path style="opacity:0.4;fill:#FFFFFF;" d="M219.934,1213.505c1.61,9.51-4.779,18.506-14.213,20.086
						c-9.454,1.586-18.42-4.84-20.03-14.35c-1.58-9.52,4.799-18.514,14.25-20.107
						C209.378,1197.554,218.337,1203.979,219.934,1213.505z"/>
					<path style="opacity:0.4;fill:#FFFFFF;" d="M-302.093,867.362c3.517,20.844-10.462,40.582-31.222,44.049
						c-20.729,3.494-40.391-10.615-43.885-31.459c-3.507-20.883,10.475-40.602,31.214-44.082
						C-325.249,832.396-305.581,846.485-302.093,867.362z"/>
					<path style="opacity:0.4;fill:#FFFFFF;" d="M217.471,1178.497c3.517,20.877-10.472,40.596-31.211,44.062
						c-20.743,3.48-40.401-10.602-43.905-31.459c-3.524-20.863,10.475-40.594,31.225-44.082
						C194.325,1143.558,213.973,1157.634,217.471,1178.497z"/>
					<path style="opacity:0.4;fill:#FFFFFF;" d="M149.168,1296.095c3.494,20.855-10.492,40.602-31.228,44.076
						c-20.729,3.473-40.395-10.631-43.898-31.48s10.475-40.582,31.205-44.068C125.996,1261.142,145.661,1275.243,149.168,1296.095z"
						/>
					<path style="opacity:0.4;fill:#FFFFFF;" d="M154.704,1224.429c6.747,40.193-20.184,78.219-60.15,84.918
						c-39.976,6.713-77.834-20.455-84.594-60.662c-6.747-40.166,20.184-78.205,60.157-84.906
						C110.072,1157.093,147.963,1184.233,154.704,1224.429z"/>
					<path style="opacity:0.4;fill:#FFFFFF;" d="M-69.21,1521.479c9.167,54.545-27.416,106.178-81.666,115.281
						c-54.26,9.104-105.692-27.777-114.849-82.35c-9.173-54.578,27.39-106.197,81.663-115.287
						C-129.795,1430.022-78.377,1466.89-69.21,1521.479z"/>
					<path style="opacity:0.4;fill:#FFFFFF;" d="M87.368,1458.978c12.168,72.43-36.359,140.916-108.366,152.984
						s-140.233-36.854-152.381-109.264c-12.166-72.408,36.335-140.908,108.362-152.977
						C6.994,1337.626,75.226,1386.556,87.368,1458.978z"/>
					<path style="opacity:0.4;fill:#FFFFFF;" d="M583.84,874.196c0,0,0-0.014,0-0.027
						c-15.763-93.787-104.162-157.176-197.455-141.527c-93.272,15.629-156.113,104.354-140.374,198.16
						c15.756,93.836,104.136,157.209,197.415,141.572c73.868-12.375,128.62-70.629,140.414-140.922V874.196z"/>
				</g>
				
					<radialGradient id="SVGID_57_" cx="71.8467" cy="1096.1963" r="878.6983" gradientTransform="matrix(0 -1.3305 0.7107 0 -146.5225 838.4463)" gradientUnits="userSpaceOnUse">
					<stop  offset="0" style="stop-color:#FFFFFF"/>
					<stop  offset="1" style="stop-color:#FFFFFF"/>
				</radialGradient>
				<path style="opacity:0.43;fill:url(#SVGID_57_);" d="M236.554-109.758C123.753,112.145,54.52,412.366,54.52,742.862
					c0,377.752,90.481,715.914,233.057,942.834h709.191V-109.758H236.554z"/>
				
					<radialGradient id="SVGID_58_" cx="-699.2217" cy="1261.8359" r="878.6464" gradientTransform="matrix(1.2814 0 0 0.6719 1062.0244 389.3701)" gradientUnits="userSpaceOnUse">
					<stop  offset="0" style="stop-color:#FFFFFF"/>
					<stop  offset="1" style="stop-color:#FFFFFF"/>
				</radialGradient>
				<path style="opacity:0.43;fill:url(#SVGID_58_);" d="M987.17,862.872C773.464,756.229,484.322,690.79,166.042,690.79
					c-363.812,0-689.492,85.529-908.025,220.301v670.408H987.17V862.872z"/>
				
					<radialGradient id="SVGID_59_" cx="-495.3945" cy="1355.2168" r="878.6509" gradientTransform="matrix(1.2814 0 0 0.6719 1062.0244 389.3701)" gradientUnits="userSpaceOnUse">
					<stop  offset="0" style="stop-color:#FFFFFF"/>
					<stop  offset="1" style="stop-color:#FFFFFF"/>
				</radialGradient>
				<path style="opacity:0.43;fill:url(#SVGID_59_);" d="M1248.359,925.614C1034.646,818.97,745.512,753.532,427.222,753.532
					c-363.81,0-689.493,85.537-908.025,220.303v670.408h1729.163V925.614z"/>
			</g>
		</g>
	</g>
</g>
</svg>
