<?xml version="1.0" encoding="iso-8859-1"?>
<!-- Generator: Adobe Illustrator 16.0.0, SVG Export Plug-In . SVG Version: 6.00 Build 0)  -->
<!DOCTYPE svg PUBLIC "-//W3C//DTD SVG 1.1//EN" "http://www.w3.org/Graphics/SVG/1.1/DTD/svg11.dtd">
<svg version="1.1" id="CALL" xmlns="http://www.w3.org/2000/svg" xmlns:xlink="http://www.w3.org/1999/xlink" x="0px" y="0px"
	 width="75px" height="75px" viewBox="0 0 75 75" style="enable-background:new 0 0 75 75;" xml:space="preserve">
<g>
	<defs>
		<rect id="SVGID_1_" width="75" height="75"/>
	</defs>
	<clipPath id="SVGID_2_">
		<use xlink:href="#SVGID_1_"  style="overflow:visible;"/>
	</clipPath>
	<g style="clip-path:url(#SVGID_2_);">
		<path d="M33.187,67.775h-1.198c-0.354,0-0.656-0.076-0.908-0.239c-0.126,0.934-0.492,1.665-1.098,2.207
			c-0.631,0.542-1.451,0.808-2.447,0.808c-2.22,0-3.33-1.312-3.33-3.948v-2.195h0.744v2.145c0,1.098,0.239,1.98,0.706,2.649
			c0.467,0.668,1.161,1.009,2.056,1.009c0.731,0,1.35-0.328,1.867-0.984c0.517-0.643,0.782-1.5,0.782-2.56v-5.248l-0.215-1.552
			l0.959-0.239v6.231c0,0.87,0.391,1.312,1.172,1.312h0.909V67.775z"/>
		<path d="M44.815,67.775H35.28v-0.429c-0.341,0.29-0.669,0.429-0.971,0.429h-1.476v-0.604h1.16c0.782,0,1.173-0.455,1.173-1.363
			l0.013-2.649l0.744-0.188v2.901c1.072-2.22,2.509-3.33,4.289-3.33c0.846,0,1.539,0.202,2.068,0.605
			c0.53,0.392,0.795,0.908,0.795,1.539v2.472h1.74V67.775z M42.293,67.171v-2.259c0-1.097-0.907-1.728-2.359-1.728
			c-1.475,0-2.812,1.324-3.998,3.986H42.293z"/>
		<path d="M47.792,66.035c0,1.098-0.605,1.74-1.628,1.74h-1.689v-0.604h1.399c0.782,0,1.174-0.455,1.174-1.363v-1.575l-0.202-1.565
			l0.946-0.239V66.035z M46.051,60.195c0,0.353-0.188,0.529-0.555,0.529s-0.555-0.177-0.555-0.542c0-0.366,0.188-0.556,0.555-0.556
			C45.799,59.627,46.051,59.88,46.051,60.195z M47.703,60.195c0,0.353-0.188,0.529-0.555,0.529c-0.365,0-0.542-0.177-0.542-0.542
			c0-0.366,0.177-0.556,0.542-0.556C47.451,59.627,47.703,59.88,47.703,60.195z"/>
		<path d="M50.794,70.235h-2.297v-0.34h0.43v-0.189c0-0.707,0.277-1.061,0.846-1.061c0.265,0,0.517,0.102,0.73,0.315l-0.138,0.189
			c-0.151-0.101-0.291-0.151-0.43-0.151c-0.417,0-0.618,0.252-0.605,0.757v0.14h0.707l0.314-0.039L50.794,70.235z M50.214,59.627
			l-0.113,1.501v6.647h-0.758v-6.647l-0.177-1.412L50.214,59.627z"/>
	</g>
	<path style="clip-path:url(#SVGID_2_);fill:#FFFFFF;" d="M10.5,29.225c0-14.91,12.089-26.999,27-26.999
		c14.912,0,27,12.089,27,26.999c0,14.915-12.088,27.002-27,27.002C22.589,56.227,10.5,44.14,10.5,29.225"/>
	<path style="clip-path:url(#SVGID_2_);fill:#2551A3;" d="M54.19,37.477l-7.062-7.056c-0.324-0.325-0.851-0.325-1.174,0
		l-3.711,3.707c-1.006-0.281-3.687-1.261-6.771-4.337c-3.199-3.201-4.495-6.394-4.817-7.293l3.688-3.692
		c0.156-0.154,0.244-0.366,0.244-0.587c0-0.222-0.088-0.432-0.244-0.586l-7.063-7.06c-0.322-0.33-0.85-0.33-1.171,0l-4.129,4.127
		c-0.056,0.053-0.098,0.113-0.135,0.18l-0.01,0.008c-3.285,4.037,0.005,13.062,7.489,20.549c5.326,5.327,11.781,8.769,16.444,8.769
		c1.664,0,3.034-0.423,4.074-1.256l0.098-0.067c0.041-0.024,0.081-0.059,0.118-0.098l4.132-4.135
		c0.157-0.155,0.244-0.363,0.244-0.587C54.435,37.846,54.348,37.635,54.19,37.477"/>
</g>
</svg>
