<?xml version="1.0" encoding="iso-8859-1"?>
<!-- Generator: Adobe Illustrator 16.0.0, SVG Export Plug-In . SVG Version: 6.00 Build 0)  -->
<!DOCTYPE svg PUBLIC "-//W3C//DTD SVG 1.1//EN" "http://www.w3.org/Graphics/SVG/1.1/DTD/svg11.dtd">
<svg version="1.1" id="Layer_1" xmlns="http://www.w3.org/2000/svg" xmlns:xlink="http://www.w3.org/1999/xlink" x="0px" y="0px"
	 width="401.333px" height="129.333px" viewBox="0 0 401.333 129.333" style="enable-background:new 0 0 401.333 129.333;"
	 xml:space="preserve">
<g>
	<path style="fill:#1E2053;" d="M231.177,70.478h-4.652V31.836c0-0.756-0.613-1.368-1.369-1.368c-0.755,0-1.368,0.612-1.368,1.368
		v5.767c-0.005,0-0.008-0.002-0.013-0.002h-3.417c-0.103,0-0.203,0.012-0.3,0.031l-4.424-6.86h-21.149l-4.489,6.832
		c-0.008,0-0.017-0.003-0.024-0.003h-3.416c-0.006,0-0.008,0.002-0.014,0.002v-5.767c0-0.756-0.613-1.368-1.368-1.368
		c-0.756,0-1.369,0.612-1.369,1.368v38.642h-4.652c-0.756,0-1.368,0.611-1.368,1.368c0,0.755,0.612,1.368,1.368,1.368h12.042
		c0.756,0,1.369-0.613,1.369-1.368c0-0.757-0.613-1.368-1.369-1.368h-4.652V57.625h15.533c0.756,0,1.369-0.612,1.369-1.368
		c0-0.757-0.613-1.368-1.369-1.368h-7.611c0.01-0.069,0.021-0.137,0.021-0.208v-1.84h21.162v1.84c0,0.071,0.011,0.139,0.021,0.208
		h-7.413c-0.756,0-1.369,0.611-1.369,1.368c0,0.756,0.613,1.368,1.369,1.368h15.533v12.854h-4.652c-0.756,0-1.369,0.611-1.369,1.368
		c0,0.755,0.613,1.368,1.369,1.368h12.042c0.756,0,1.368-0.613,1.368-1.368C232.545,71.089,231.933,70.478,231.177,70.478
		 M186.542,54.888V41.804c0.006,0,0.008,0.002,0.014,0.002h0.851v1.379V48.9c0,1.72,1.204,3.179,2.874,3.716v2.064
		c0,0.071,0.012,0.139,0.02,0.208H186.542z M192.383,49.294c-1.162,0-2.104-0.941-2.104-2.103s0.941-2.104,2.104-2.104
		c1.159,0,2.102,0.942,2.102,2.104S193.542,49.294,192.383,49.294 M190.924,42.91v-1.313l5.661-8.618h16.921l5.556,8.618v1.313
		H190.924z M217.749,45.088c1.16,0,2.102,0.942,2.102,2.104s-0.941,2.103-2.102,2.103s-2.102-0.941-2.102-2.103
		S216.588,45.088,217.749,45.088 M219.829,54.888c0.01-0.069,0.021-0.137,0.021-0.208v-2.112c1.598-0.575,2.729-1.998,2.729-3.668
		v-5.715v-1.379h1.196c0.005,0,0.008-0.002,0.013-0.002v13.084H219.829z"/>
</g>
<g>
	<path style="fill:#1E2053;" d="M173.549,98.59l1.44-10.056h0.163l4.088,8.251l4.049-8.251h0.161l1.447,10.056h-0.985l-0.994-7.191
		l-3.556,7.191h-0.257l-3.598-7.246l-0.988,7.246H173.549z"/>
	<path style="fill:#1E2053;" d="M192.977,96.123l0.807,0.424c-0.265,0.52-0.57,0.939-0.917,1.258s-0.736,0.562-1.17,0.729
		c-0.434,0.166-0.924,0.249-1.471,0.249c-1.213,0-2.162-0.397-2.846-1.192c-0.684-0.796-1.026-1.695-1.026-2.697
		c0-0.943,0.29-1.784,0.869-2.522c0.734-0.938,1.717-1.408,2.949-1.408c1.268,0,2.281,0.481,3.038,1.442
		c0.539,0.68,0.812,1.527,0.821,2.543h-6.692c0.018,0.863,0.294,1.572,0.828,2.125c0.534,0.552,1.193,0.828,1.978,0.828
		c0.378,0,0.747-0.066,1.105-0.197c0.358-0.132,0.663-0.307,0.914-0.524S192.685,96.609,192.977,96.123z M192.977,94.12
		c-0.128-0.511-0.313-0.919-0.558-1.224c-0.244-0.305-0.567-0.551-0.968-0.738s-0.824-0.28-1.266-0.28
		c-0.73,0-1.357,0.235-1.882,0.704c-0.383,0.342-0.673,0.854-0.869,1.538H192.977z"/>
	<path style="fill:#1E2053;" d="M203.033,92.698l-0.759,0.472c-0.655-0.871-1.55-1.306-2.684-1.306
		c-0.906,0-1.658,0.292-2.256,0.874s-0.898,1.291-0.898,2.123c0,0.542,0.138,1.053,0.413,1.53s0.653,0.849,1.133,1.112
		c0.48,0.265,1.019,0.396,1.615,0.396c1.093,0,1.985-0.436,2.677-1.306l0.759,0.499c-0.355,0.535-0.833,0.951-1.432,1.246
		s-1.282,0.442-2.047,0.442c-1.176,0-2.151-0.374-2.926-1.121s-1.162-1.657-1.162-2.728c0-0.721,0.181-1.389,0.543-2.006
		c0.362-0.618,0.86-1.1,1.494-1.446s1.342-0.52,2.126-0.52c0.492,0,0.967,0.075,1.425,0.226s0.847,0.346,1.166,0.588
		S202.81,92.324,203.033,92.698z"/>
	<path style="fill:#1E2053;" d="M204.872,88.282h0.957v4.204c0.387-0.51,0.813-0.893,1.278-1.145c0.465-0.254,0.968-0.38,1.511-0.38
		c0.556,0,1.049,0.142,1.48,0.424s0.749,0.662,0.954,1.138c0.205,0.477,0.308,1.223,0.308,2.239v3.828h-0.957v-3.548
		c0-0.857-0.034-1.429-0.103-1.716c-0.119-0.492-0.334-0.862-0.646-1.11c-0.312-0.249-0.721-0.373-1.227-0.373
		c-0.579,0-1.097,0.191-1.555,0.574s-0.76,0.857-0.906,1.422c-0.091,0.365-0.137,1.039-0.137,2.023v2.728h-0.957V88.282z"/>
	<path style="fill:#1E2053;" d="M220.82,91.153v7.438h-0.943v-1.278c-0.401,0.488-0.851,0.854-1.35,1.101s-1.045,0.369-1.637,0.369
		c-1.053,0-1.952-0.382-2.697-1.146c-0.745-0.763-1.118-1.691-1.118-2.785c0-1.07,0.376-1.986,1.128-2.748s1.657-1.142,2.714-1.142
		c0.611,0,1.163,0.13,1.658,0.39s0.929,0.649,1.302,1.169v-1.367H220.82z M216.995,91.884c-0.533,0-1.024,0.131-1.475,0.393
		c-0.451,0.262-0.81,0.629-1.076,1.104c-0.266,0.473-0.399,0.974-0.399,1.502c0,0.523,0.134,1.023,0.403,1.502
		c0.269,0.478,0.629,0.85,1.082,1.116c0.453,0.267,0.939,0.399,1.458,0.399c0.523,0,1.02-0.132,1.488-0.396
		c0.469-0.264,0.83-0.621,1.083-1.071c0.252-0.45,0.379-0.958,0.379-1.522c0-0.861-0.283-1.58-0.85-2.158
		S217.824,91.884,216.995,91.884z"/>
	<path style="fill:#1E2053;" d="M222.973,91.153h0.957v1.333c0.383-0.51,0.807-0.893,1.271-1.145c0.465-0.254,0.971-0.38,1.518-0.38
		c0.556,0,1.049,0.142,1.48,0.424s0.749,0.663,0.954,1.142s0.308,1.224,0.308,2.235v3.828h-0.957v-3.548
		c0-0.857-0.036-1.429-0.106-1.716c-0.111-0.492-0.324-0.862-0.638-1.11c-0.314-0.249-0.725-0.373-1.23-0.373
		c-0.579,0-1.098,0.191-1.556,0.574s-0.76,0.857-0.906,1.422c-0.091,0.369-0.137,1.043-0.137,2.023v2.728h-0.957V91.153z"/>
	<path style="fill:#1E2053;" d="M231.843,88.09c0.218,0,0.404,0.077,0.558,0.232s0.231,0.342,0.231,0.561
		c0,0.214-0.077,0.399-0.231,0.554s-0.34,0.232-0.558,0.232c-0.213,0-0.397-0.078-0.551-0.232s-0.231-0.34-0.231-0.554
		c0-0.219,0.077-0.405,0.231-0.561S231.629,88.09,231.843,88.09z M231.368,91.153h0.957v7.438h-0.957V91.153z"/>
	<path style="fill:#1E2053;" d="M241.533,92.698l-0.759,0.472c-0.655-0.871-1.55-1.306-2.684-1.306
		c-0.906,0-1.658,0.292-2.256,0.874s-0.898,1.291-0.898,2.123c0,0.542,0.138,1.053,0.413,1.53s0.653,0.849,1.133,1.112
		c0.48,0.265,1.019,0.396,1.615,0.396c1.093,0,1.985-0.436,2.677-1.306l0.759,0.499c-0.355,0.535-0.833,0.951-1.432,1.246
		s-1.282,0.442-2.047,0.442c-1.176,0-2.151-0.374-2.926-1.121s-1.162-1.657-1.162-2.728c0-0.721,0.181-1.389,0.543-2.006
		c0.362-0.618,0.86-1.1,1.494-1.446s1.342-0.52,2.126-0.52c0.492,0,0.967,0.075,1.425,0.226s0.847,0.346,1.166,0.588
		C241.038,92.017,241.309,92.324,241.533,92.698z"/>
</g>
</svg>
