<?xml version="1.0" encoding="iso-8859-1"?>
<!-- Generator: Adobe Illustrator 16.0.0, SVG Export Plug-In . SVG Version: 6.00 Build 0)  -->
<!DOCTYPE svg PUBLIC "-//W3C//DTD SVG 1.1//EN" "http://www.w3.org/Graphics/SVG/1.1/DTD/svg11.dtd">
<svg version="1.1" id="Layer_1" xmlns="http://www.w3.org/2000/svg" xmlns:xlink="http://www.w3.org/1999/xlink" x="0px" y="0px"
	 width="401.333px" height="129.333px" viewBox="0 0 401.333 129.333" style="enable-background:new 0 0 401.333 129.333;"
	 xml:space="preserve">
<g>
	<path style="fill:#1E2053;" d="M213.03,32.011l-5.99,6.067h-13.478c-1.512,0-2.736,1.225-2.736,2.736v28.933
		c0,1.512,1.225,2.737,2.736,2.737h34.208c1.512,0,2.736-1.226,2.736-2.737V33.934c0-1.512-1.225-2.736-2.736-2.736h-12.793
		C214.245,31.198,213.543,31.491,213.03,32.011 M225.952,38.214h-12.92l3.738-3.789h9.182V38.214z"/>
	<path style="fill:#1E2053;" d="M204.616,35.86h-10.712v-1.926c0-1.512,1.225-2.736,2.736-2.736h5.239
		c1.512,0,2.736,1.225,2.736,2.736V35.86z"/>
	<path style="fill:#FFFFFF;" d="M205.351,56.078l5.315-10.22l5.317,10.22c1.525,2.936,0.385,6.554-2.551,8.081
		c-2.936,1.527-6.554,0.386-8.082-2.551C204.42,59.819,204.497,57.746,205.351,56.078"/>
</g>
<g>
	<path style="fill:#1E2053;" d="M207.781,88.282c1.523,0,2.798,0.509,3.824,1.524s1.539,2.268,1.539,3.753
		c0,1.472-0.512,2.721-1.536,3.746s-2.272,1.538-3.745,1.538c-1.491,0-2.75-0.51-3.776-1.531s-1.539-2.256-1.539-3.705
		c0-0.967,0.234-1.861,0.701-2.687s1.104-1.471,1.912-1.938C205.968,88.515,206.842,88.282,207.781,88.282z M207.826,89.259
		c-0.744,0-1.449,0.193-2.116,0.582c-0.667,0.387-1.187,0.91-1.561,1.566c-0.375,0.656-0.562,1.389-0.562,2.195
		c0,1.195,0.414,2.205,1.243,3.027c0.829,0.824,1.827,1.235,2.996,1.235c0.78,0,1.503-0.189,2.167-0.567
		c0.664-0.379,1.182-0.896,1.554-1.553c0.372-0.657,0.558-1.387,0.558-2.189c0-0.799-0.186-1.521-0.558-2.166
		c-0.372-0.645-0.896-1.162-1.571-1.549C209.3,89.453,208.583,89.259,207.826,89.259z"/>
	<path style="fill:#1E2053;" d="M215.335,88.09c0.218,0,0.404,0.077,0.558,0.232s0.231,0.342,0.231,0.561
		c0,0.214-0.077,0.399-0.231,0.554s-0.34,0.232-0.558,0.232c-0.213,0-0.397-0.078-0.551-0.232s-0.231-0.34-0.231-0.554
		c0-0.219,0.077-0.405,0.231-0.561S215.122,88.09,215.335,88.09z M214.86,91.153h0.957v7.438h-0.957V91.153z"/>
	<path style="fill:#1E2053;" d="M217.663,88.282h0.957V98.59h-0.957V88.282z"/>
</g>
</svg>
