<?xml version="1.0" encoding="iso-8859-1"?>
<!-- Generator: Adobe Illustrator 16.0.0, SVG Export Plug-In . SVG Version: 6.00 Build 0)  -->
<!DOCTYPE svg PUBLIC "-//W3C//DTD SVG 1.1//EN" "http://www.w3.org/Graphics/SVG/1.1/DTD/svg11.dtd">
<svg version="1.1" id="Layer_1" xmlns="http://www.w3.org/2000/svg" xmlns:xlink="http://www.w3.org/1999/xlink" x="0px" y="0px"
	 width="401.333px" height="129.333px" viewBox="0 0 401.333 129.333" style="enable-background:new 0 0 401.333 129.333;"
	 xml:space="preserve">
<g>
	<path style="fill:#00B1F0;" d="M210.159,30.455c-16.489,0-30.62,10.102-36.539,24.455l27.696,11.289c0,0,4.374-4.138,8.843-4.138
		c0.747,0,0.224,0.094,0.9,0.241l10.118-15.616c0.738-1.131,2.93-1.91,4.757-0.782c1.747,1.076,2.021,2.659,1.517,3.456
		c-2.084,3.278-9.7,14.971-9.7,14.971c1.382,0.965,1.251,1.868,1.251,1.868l27.561-11.613
		C240.566,40.404,226.524,30.455,210.159,30.455"/>
	<path style="fill:#00B1F0;" d="M225.098,47.008c-0.871-0.569-2.036-0.323-2.604,0.548l-12.837,19.682
		c-1.518,0.155-2.705,1.422-2.705,2.98c0,1.663,1.345,3.009,3.009,3.009c1.661,0,3.01-1.346,3.01-3.009
		c0-0.325-0.064-0.632-0.161-0.926l12.837-19.681C226.212,48.741,225.968,47.575,225.098,47.008"/>
	<g>
		<radialGradient id="SVGID_1_" cx="194.7896" cy="48.3267" r="8.5653" gradientUnits="userSpaceOnUse">
			<stop  offset="0" style="stop-color:#FFFFFF"/>
			<stop  offset="1" style="stop-color:#FFFFFF"/>
		</radialGradient>
		<path style="fill:url(#SVGID_1_);" d="M200.807,51.583c0,2.675-1.956,4.433-4.928,4.73v2.526h-1.883v-2.477
			c-2.154-0.074-3.912-0.793-5.225-2.131l1.659-1.658c0.94,0.99,2.204,1.51,3.764,1.56v-5.052l-0.594-0.05
			c-2.551-0.297-4.284-1.782-4.284-4.433s1.782-4.482,4.68-4.705v-2.08h1.883v2.03c1.709,0.099,3.17,0.718,4.358,1.833l-1.585,1.56
			c-0.768-0.718-1.783-1.14-2.996-1.263v4.953l0.768,0.123c1.337,0.199,2.353,0.595,3.046,1.214
			C200.362,49.032,200.807,50.146,200.807,51.583z M194.195,46.779v-4.756c-1.634,0.174-2.451,0.991-2.451,2.502
			C191.744,45.788,192.61,46.555,194.195,46.779z M198.331,51.681c0-0.768-0.198-1.337-0.619-1.708
			c-0.371-0.322-1.064-0.569-2.055-0.718v4.854C197.439,53.935,198.331,53.143,198.331,51.681z"/>
	</g>
</g>
<g>
	<path style="fill:#00B1F0;" d="M196.98,89.519v-0.984h5.51v0.984h-2.242v9.071h-1.025v-9.071H196.98z"/>
	<path style="fill:#00B1F0;" d="M203.419,91.153h0.978v1.087c0.292-0.428,0.599-0.748,0.923-0.961
		c0.324-0.211,0.661-0.317,1.012-0.317c0.264,0,0.547,0.085,0.848,0.253l-0.499,0.807c-0.201-0.086-0.369-0.13-0.506-0.13
		c-0.319,0-0.626,0.131-0.923,0.394c-0.296,0.262-0.522,0.668-0.677,1.22c-0.119,0.424-0.178,1.28-0.178,2.57v2.516h-0.978V91.153z"
		/>
	<path style="fill:#00B1F0;" d="M208.324,88.09c0.218,0,0.404,0.077,0.558,0.232s0.231,0.342,0.231,0.561
		c0,0.214-0.077,0.399-0.231,0.554s-0.34,0.232-0.558,0.232c-0.213,0-0.397-0.078-0.551-0.232s-0.231-0.34-0.231-0.554
		c0-0.219,0.077-0.405,0.231-0.561S208.111,88.09,208.324,88.09z M207.849,91.153h0.957v7.438h-0.957V91.153z"/>
	<path style="fill:#00B1F0;" d="M210.809,91.153h0.957v1.367c0.378-0.52,0.812-0.909,1.304-1.169s1.041-0.39,1.646-0.39
		c1.056,0,1.96,0.38,2.711,1.142c0.751,0.762,1.127,1.678,1.127,2.748c0,1.094-0.372,2.022-1.117,2.785
		c-0.744,0.764-1.642,1.146-2.694,1.146c-0.592,0-1.136-0.123-1.632-0.369s-0.945-0.612-1.345-1.101v3.999h-0.957V91.153z
		 M214.637,91.884c-0.828,0-1.524,0.289-2.09,0.867c-0.566,0.578-0.849,1.297-0.849,2.158c0,0.564,0.126,1.072,0.378,1.522
		s0.614,0.808,1.084,1.071c0.471,0.265,0.967,0.396,1.49,0.396c0.514,0,0.997-0.133,1.449-0.399s0.812-0.639,1.081-1.116
		c0.268-0.479,0.402-0.979,0.402-1.502c0-0.528-0.133-1.029-0.399-1.502c-0.266-0.475-0.624-0.842-1.074-1.104
		S215.169,91.884,214.637,91.884z"/>
</g>
</svg>
