<?xml version="1.0" encoding="utf-8"?>
<!-- Generator: Adobe Illustrator 16.0.0, SVG Export Plug-In . SVG Version: 6.00 Build 0)  -->
<!DOCTYPE svg PUBLIC "-//W3C//DTD SVG 1.1//EN" "http://www.w3.org/Graphics/SVG/1.1/DTD/svg11.dtd">
<svg version="1.1" id="Layer_1" xmlns="http://www.w3.org/2000/svg" xmlns:xlink="http://www.w3.org/1999/xlink" x="0px" y="0px"
	 width="72.944px" height="42.771px" viewBox="173.62 30.455 72.944 42.771" enable-background="new 173.62 30.455 72.944 42.771"
	 xml:space="preserve">
<g>
	<path fill="#00B1F0" d="M210.159,30.455c-16.489,0-30.62,10.102-36.539,24.455l27.696,11.29c0,0,4.374-4.14,8.843-4.14
		c0.747,0,0.225,0.094,0.9,0.241l10.116-15.616c0.738-1.131,2.932-1.91,4.759-0.782c1.747,1.076,2.021,2.659,1.518,3.456
		c-2.084,3.278-9.701,14.972-9.701,14.972c1.383,0.964,1.252,1.869,1.252,1.869l27.562-11.614
		C240.566,40.404,226.524,30.455,210.159,30.455"/>
	<path fill="#00B1F0" d="M225.098,47.008c-0.871-0.569-2.036-0.323-2.604,0.548l-12.838,19.682
		c-1.518,0.155-2.705,1.424-2.705,2.979c0,1.664,1.346,3.01,3.01,3.01c1.66,0,3.011-1.346,3.011-3.01
		c0-0.324-0.064-0.631-0.161-0.926l12.837-19.682C226.211,48.741,225.967,47.575,225.098,47.008"/>
	<g>
		
			<radialGradient id="SVGID_1_" cx="706.7898" cy="709.9924" r="8.5659" gradientTransform="matrix(1 0 0 1 -512 -661.667)" gradientUnits="userSpaceOnUse">
			<stop  offset="0" style="stop-color:#FFFFFF"/>
			<stop  offset="1" style="stop-color:#FFFFFF"/>
		</radialGradient>
		<path fill="url(#SVGID_1_)" d="M200.807,51.583c0,2.675-1.956,4.433-4.929,4.729v2.526h-1.883v-2.478
			c-2.154-0.073-3.912-0.793-5.225-2.131l1.659-1.657c0.939,0.989,2.203,1.51,3.764,1.56v-5.052l-0.594-0.05
			c-2.552-0.298-4.284-1.782-4.284-4.434c0-2.65,1.782-4.481,4.68-4.705v-2.08h1.883v2.03c1.709,0.099,3.17,0.718,4.358,1.833
			l-1.585,1.56c-0.769-0.718-1.783-1.14-2.996-1.263v4.953l0.768,0.123c1.338,0.199,2.354,0.595,3.047,1.214
			C200.362,49.032,200.807,50.146,200.807,51.583z M194.195,46.779v-4.756c-1.634,0.174-2.451,0.991-2.451,2.502
			C191.744,45.788,192.61,46.555,194.195,46.779z M198.331,51.681c0-0.768-0.198-1.337-0.619-1.708
			c-0.371-0.322-1.063-0.569-2.055-0.718v4.854C197.439,53.935,198.331,53.143,198.331,51.681z"/>
	</g>
</g>
</svg>
