<?xml version="1.0" encoding="iso-8859-1"?>
<!-- Generator: Adobe Illustrator 16.0.0, SVG Export Plug-In . SVG Version: 6.00 Build 0)  -->
<!DOCTYPE svg PUBLIC "-//W3C//DTD SVG 1.1//EN" "http://www.w3.org/Graphics/SVG/1.1/DTD/svg11.dtd">
<svg version="1.1" id="Layer_1" xmlns="http://www.w3.org/2000/svg" xmlns:xlink="http://www.w3.org/1999/xlink" x="0px" y="0px"
	 width="71.25px" height="56.69px" viewBox="0 0 71.25 56.69" style="enable-background:new 0 0 71.25 56.69;" xml:space="preserve"
	>
<path style="fill:#00B1F0;" d="M53.714,35.877c7.452-7.452,7.452-19.578,0-27.031c-7.453-7.451-19.579-7.451-27.031,0
	c-6.323,6.322-7.28,15.727-2.875,23.068c0,0,0.316,0.531-0.111,0.958c-2.438,2.438-9.752,9.752-9.752,9.752
	c-1.94,1.941-2.402,4.655-0.682,6.376l0.297,0.297c1.721,1.722,4.436,1.259,6.376-0.682c0,0,7.299-7.299,9.731-9.731
	c0.448-0.448,0.979-0.132,0.979-0.132C37.988,43.157,47.392,42.2,53.714,35.877L53.714,35.877z M30.212,32.348
	c-5.507-5.506-5.507-14.466,0-19.973c5.507-5.506,14.466-5.506,19.973,0c5.507,5.507,5.507,14.467,0,19.973
	C44.678,37.855,35.719,37.855,30.212,32.348L30.212,32.348z M30.212,32.348"/>
<path style="fill:#00B1F0;" d="M40.279,12.994c-3.939,0-7.133,3.34-7.133,7.279c0,5.393,6.118,11.539,7.133,11.539
	c1.032,0,7.132-6.109,7.132-11.539C47.411,16.334,44.218,12.994,40.279,12.994L40.279,12.994z M40.279,24.624
	c-2.364,0-4.279-1.917-4.279-4.28s1.915-4.279,4.279-4.279c2.363,0,4.278,1.916,4.278,4.279S42.643,24.624,40.279,24.624
	L40.279,24.624z M40.279,24.624"/>
</svg>
