<?xml version="1.0" encoding="iso-8859-1"?>
<!-- Generator: Adobe Illustrator 16.0.0, SVG Export Plug-In . SVG Version: 6.00 Build 0)  -->
<!DOCTYPE svg PUBLIC "-//W3C//DTD SVG 1.1//EN" "http://www.w3.org/Graphics/SVG/1.1/DTD/svg11.dtd">
<svg version="1.1" id="NEWS" xmlns="http://www.w3.org/2000/svg" xmlns:xlink="http://www.w3.org/1999/xlink" x="0px" y="0px"
	 width="75px" height="75px" viewBox="0 0 75 75" style="enable-background:new 0 0 75 75;" xml:space="preserve">
<g>
	<defs>
		<rect id="SVGID_1_" width="75" height="75"/>
	</defs>
	<clipPath id="SVGID_2_">
		<use xlink:href="#SVGID_1_"  style="overflow:visible;"/>
	</clipPath>
	<circle style="clip-path:url(#SVGID_2_);fill:#F5F5F5;" cx="38.107" cy="29.076" r="27.536"/>
	<g style="clip-path:url(#SVGID_2_);">
		<path d="M28.008,69.089c0,2.136-0.983,3.477-2.931,4.022l-0.25-0.422c0.795-0.295,1.388-0.778,1.793-1.449
			c0.296-0.514,0.437-1.044,0.437-1.621v-4.286l-0.25-1.965l1.201-0.297V69.089z"/>
		<path d="M33.322,69.682h-1.341c-1.324,0-1.995-0.717-1.995-2.151v-5.768l-0.249-1.854l1.185-0.281v7.623
			c0,1.122,0.483,1.683,1.435,1.683h0.966V69.682z"/>
		<path d="M38.498,69.682h-0.982c-0.67,0-1.185-0.218-1.559-0.654c-0.359,0.437-0.842,0.654-1.466,0.654h-1.699v-0.749h1.263
			c0.967,0,1.45-0.561,1.45-1.683v-1.917l-0.25-1.965l1.2-0.297v4.194c0,1.106,0.469,1.667,1.419,1.667h0.624V69.682z
			 M36.643,72.456c0,0.438-0.234,0.655-0.686,0.655c-0.452,0-0.687-0.218-0.687-0.67s0.234-0.687,0.687-0.687
			C36.331,71.755,36.643,72.066,36.643,72.456z"/>
		<path d="M46.37,69.682h-8.263v-0.749l6.892-0.015c-0.28-1.029-0.826-2.151-1.638-3.352c-0.982-1.48-1.871-2.229-2.681-2.229
			c-0.578,0-1.029,0.468-1.029,1.263c0,0.266,0.062,0.577,0.171,0.904l-0.873,0.125c0.141-1.824,1.092-2.931,2.276-2.931
			c1.076,0,2.198,0.92,3.398,2.759C45.716,67.109,46.292,68.513,46.37,69.682z M42.255,60.312c0,0.437-0.233,0.655-0.687,0.655
			c-0.452,0-0.687-0.219-0.687-0.67c0-0.452,0.234-0.687,0.687-0.687C41.942,59.611,42.255,59.923,42.255,60.312z"/>
		<path d="M50.173,59.004h-2.837v-0.406h0.53v-0.265c0-0.857,0.344-1.294,1.045-1.294c0.327,0,0.623,0.124,0.888,0.39l-0.171,0.25
			c-0.171-0.141-0.359-0.218-0.53-0.218c-0.498,0-0.748,0.311-0.748,0.949v0.188h0.873l0.405-0.062L50.173,59.004z M49.363,59.611
			l-0.141,1.855v8.215h-0.936v-8.215l-0.219-1.747L49.363,59.611z"/>
	</g>
	<path style="clip-path:url(#SVGID_2_);fill:#FBCC0C;" d="M51.5,46.847H24.535V12.404H51.5V46.847z M49.451,20.494h-21.32v0.858
		h21.32V20.494z M49.451,22.212h-21.32v0.857h21.32V22.212z M49.451,23.927h-21.32v0.86h21.32V23.927z M49.451,25.642h-21.32v0.86
		h21.32V25.642z M49.451,27.361h-21.32v0.858h21.32V27.361z M49.451,29.077H38.792v0.858h10.659V29.077z M49.451,30.509H38.792
		v0.859h10.659V30.509z M49.451,31.944H38.792v0.857h10.659V31.944z M49.451,33.375H38.792v0.858h10.659V33.375z"/>
</g>
</svg>
