<?xml version="1.0" encoding="iso-8859-1"?>
<!-- Generator: Adobe Illustrator 16.0.0, SVG Export Plug-In . SVG Version: 6.00 Build 0)  -->
<!DOCTYPE svg PUBLIC "-//W3C//DTD SVG 1.1//EN" "http://www.w3.org/Graphics/SVG/1.1/DTD/svg11.dtd">
<svg version="1.1" id="Layer_1" xmlns="http://www.w3.org/2000/svg" xmlns:xlink="http://www.w3.org/1999/xlink" x="0px" y="0px"
	 width="131.25px" height="56.69px" viewBox="0 0 131.25 56.69" style="enable-background:new 0 0 131.25 56.69;"
	 xml:space="preserve">
<g>
	<path style="fill:#00B1F0;" d="M56.408,28.869l1.343-0.806c0.945,1.74,2.037,2.61,3.276,2.61c0.53,0,1.027-0.123,1.493-0.371
		c0.465-0.246,0.82-0.578,1.063-0.993c0.243-0.415,0.365-0.855,0.365-1.321c0-0.53-0.179-1.049-0.537-1.558
		c-0.494-0.702-1.396-1.547-2.707-2.535c-1.318-0.995-2.138-1.715-2.46-2.159c-0.559-0.745-0.838-1.551-0.838-2.417
		c0-0.688,0.165-1.314,0.494-1.88c0.329-0.565,0.793-1.012,1.391-1.338c0.598-0.325,1.248-0.488,1.95-0.488
		c0.745,0,1.441,0.185,2.089,0.553c0.648,0.369,1.333,1.048,2.057,2.036l-1.289,0.978c-0.595-0.788-1.101-1.307-1.52-1.558
		s-0.875-0.376-1.37-0.376c-0.638,0-1.159,0.193-1.563,0.58c-0.405,0.387-0.607,0.863-0.607,1.429c0,0.344,0.071,0.677,0.215,0.999
		c0.143,0.322,0.404,0.673,0.784,1.053c0.208,0.2,0.888,0.727,2.041,1.579c1.368,1.01,2.306,1.908,2.814,2.696
		c0.508,0.788,0.763,1.579,0.763,2.374c0,1.146-0.435,2.142-1.305,2.986s-1.928,1.268-3.174,1.268c-0.96,0-1.83-0.256-2.61-0.769
		C57.786,30.93,57.066,30.072,56.408,28.869z"/>
	<path style="fill:#00B1F0;" d="M78.59,27.935l1.268,0.666c-0.416,0.816-0.896,1.476-1.441,1.977s-1.158,0.883-1.838,1.144
		c-0.681,0.262-1.452,0.393-2.312,0.393c-1.907,0-3.397-0.625-4.473-1.875c-1.075-1.249-1.613-2.662-1.613-4.237
		c0-1.482,0.455-2.804,1.365-3.964c1.154-1.476,2.699-2.213,4.634-2.213c1.993,0,3.584,0.756,4.774,2.267
		c0.846,1.067,1.275,2.399,1.29,3.996H69.728c0.028,1.357,0.462,2.471,1.301,3.339s1.875,1.302,3.108,1.302
		c0.595,0,1.174-0.104,1.737-0.311s1.042-0.481,1.436-0.824C77.705,29.251,78.131,28.698,78.59,27.935z M78.59,24.787
		c-0.201-0.802-0.493-1.443-0.876-1.923c-0.384-0.479-0.891-0.866-1.522-1.16c-0.631-0.294-1.294-0.44-1.99-0.44
		c-1.147,0-2.133,0.369-2.958,1.106c-0.602,0.537-1.058,1.343-1.366,2.417H78.59z"/>
	<path style="fill:#00B1F0;" d="M94.693,20.125v11.688H93.21v-2.009c-0.63,0.767-1.337,1.343-2.122,1.729s-1.642,0.58-2.573,0.58
		c-1.654,0-3.067-0.6-4.238-1.799c-1.171-1.2-1.756-2.659-1.756-4.378c0-1.683,0.591-3.122,1.772-4.318s2.603-1.794,4.265-1.794
		c0.959,0,1.828,0.204,2.605,0.612c0.777,0.408,1.459,1.021,2.046,1.837v-2.148H94.693z M88.683,21.274
		c-0.837,0-1.609,0.206-2.318,0.617c-0.708,0.411-1.271,0.989-1.69,1.732c-0.418,0.744-0.627,1.531-0.627,2.36
		c0,0.823,0.211,1.61,0.633,2.361s0.989,1.336,1.701,1.754c0.712,0.419,1.476,0.628,2.291,0.628c0.823,0,1.602-0.207,2.339-0.622
		c0.736-0.415,1.303-0.977,1.7-1.685s0.596-1.506,0.596-2.394c0-1.352-0.445-2.481-1.336-3.391
		C91.081,21.729,89.984,21.274,88.683,21.274z"/>
	<path style="fill:#00B1F0;" d="M97.507,20.125h1.536v1.708c0.458-0.673,0.941-1.177,1.45-1.509c0.508-0.334,1.038-0.5,1.59-0.5
		c0.414,0,0.859,0.133,1.332,0.397l-0.785,1.268c-0.314-0.136-0.58-0.204-0.794-0.204c-0.501,0-0.985,0.206-1.45,0.617
		c-0.466,0.412-0.82,1.052-1.063,1.918c-0.187,0.666-0.279,2.013-0.279,4.039v3.953h-1.536V20.125z"/>
	<path style="fill:#00B1F0;" d="M116.037,22.553l-1.191,0.741c-1.031-1.368-2.436-2.052-4.217-2.052
		c-1.424,0-2.605,0.458-3.547,1.373c-0.94,0.916-1.41,2.028-1.41,3.338c0,0.851,0.216,1.652,0.648,2.403s1.027,1.334,1.781,1.749
		c0.755,0.415,1.601,0.622,2.537,0.622c1.717,0,3.119-0.684,4.207-2.052l1.191,0.784c-0.559,0.841-1.309,1.494-2.25,1.958
		c-0.941,0.463-2.014,0.695-3.217,0.695c-1.848,0-3.381-0.587-4.598-1.762c-1.219-1.175-1.826-2.604-1.826-4.286
		c0-1.132,0.284-2.183,0.854-3.153c0.569-0.97,1.352-1.728,2.348-2.271c0.994-0.544,2.108-0.816,3.34-0.816
		c0.773,0,1.521,0.118,2.24,0.354s1.33,0.544,1.832,0.924C115.26,21.482,115.687,21.966,116.037,22.553z"/>
	<path style="fill:#00B1F0;" d="M118.928,15.613h1.504v6.606c0.607-0.802,1.277-1.401,2.008-1.8c0.73-0.396,1.521-0.596,2.375-0.596
		c0.873,0,1.648,0.222,2.325,0.666s1.177,1.04,1.499,1.789c0.322,0.748,0.482,1.921,0.482,3.518v6.016h-1.504v-5.575
		c0-1.347-0.053-2.245-0.16-2.696c-0.188-0.773-0.525-1.355-1.016-1.746c-0.49-0.39-1.133-0.585-1.928-0.585
		c-0.91,0-1.725,0.301-2.444,0.902s-1.194,1.347-1.423,2.234c-0.145,0.573-0.215,1.633-0.215,3.18v4.286h-1.504V15.613z"/>
</g>
<g>
	<path style="fill:#00B1F0;" d="M43.881,35.878c7.453-7.453,7.453-19.579,0-27.031c-7.451-7.453-19.578-7.453-27.03,0
		c-6.322,6.322-7.28,15.726-2.875,23.068c0,0,0.316,0.531-0.111,0.957l-9.752,9.752c-1.94,1.941-2.403,4.656-0.682,6.377
		l0.297,0.297c1.721,1.721,4.435,1.258,6.376-0.682l9.731-9.732c0.447-0.447,0.979-0.131,0.979-0.131
		C28.155,43.157,37.56,42.2,43.881,35.878L43.881,35.878z M20.38,32.349c-5.508-5.507-5.508-14.467,0-19.973
		c5.506-5.507,14.466-5.507,19.973,0c5.506,5.506,5.506,14.466,0,19.973C34.846,37.855,25.886,37.855,20.38,32.349L20.38,32.349z
		 M20.38,32.349"/>
	<path style="fill:#00B1F0;" d="M21.599,21.228c-0.256,0-0.516-0.051-0.768-0.156c-1.003-0.425-1.473-1.582-1.048-2.586
		c2.669-6.307,9.97-9.266,16.276-6.597c1.003,0.425,1.473,1.581,1.049,2.585c-0.426,1.004-1.582,1.473-2.586,1.049
		c-4.303-1.822-9.285,0.198-11.105,4.501C23.098,20.775,22.368,21.228,21.599,21.228L21.599,21.228z M21.599,21.228"/>
</g>
</svg>
