<?xml version="1.0" encoding="iso-8859-1"?>
<!-- Generator: Adobe Illustrator 16.0.0, SVG Export Plug-In . SVG Version: 6.00 Build 0)  -->
<!DOCTYPE svg PUBLIC "-//W3C//DTD SVG 1.1//EN" "http://www.w3.org/Graphics/SVG/1.1/DTD/svg11.dtd">
<svg version="1.1" id="Layer_1" xmlns="http://www.w3.org/2000/svg" xmlns:xlink="http://www.w3.org/1999/xlink" x="0px" y="0px"
	 width="53.25px" height="56.69px" viewBox="0 0 53.25 56.69" style="enable-background:new 0 0 53.25 56.69;" xml:space="preserve"
	>
<g>
	<path style="fill:#202052;" d="M43.881,35.878c7.453-7.453,7.453-19.579,0-27.031c-7.451-7.453-19.578-7.453-27.03,0
		c-6.322,6.322-7.28,15.726-2.875,23.068c0,0,0.316,0.531-0.111,0.957l-9.752,9.752c-1.94,1.941-2.403,4.656-0.682,6.377
		l0.297,0.297c1.721,1.721,4.435,1.258,6.376-0.682l9.731-9.732c0.447-0.447,0.979-0.131,0.979-0.131
		C28.155,43.157,37.56,42.2,43.881,35.878L43.881,35.878z M20.38,32.349c-5.508-5.507-5.508-14.467,0-19.973
		c5.506-5.507,14.466-5.507,19.973,0c5.506,5.506,5.506,14.466,0,19.973C34.846,37.855,25.886,37.855,20.38,32.349L20.38,32.349z
		 M20.38,32.349"/>
	<path style="fill:#202052;" d="M21.599,21.228c-0.256,0-0.516-0.051-0.768-0.156c-1.003-0.425-1.473-1.582-1.048-2.586
		c2.669-6.307,9.97-9.266,16.276-6.597c1.003,0.425,1.473,1.581,1.049,2.585c-0.426,1.004-1.582,1.473-2.586,1.049
		c-4.303-1.822-9.285,0.198-11.105,4.501C23.098,20.775,22.368,21.228,21.599,21.228L21.599,21.228z M21.599,21.228"/>
</g>
</svg>
