<?xml version="1.0" encoding="iso-8859-1"?>
<!-- Generator: Adobe Illustrator 16.0.0, SVG Export Plug-In . SVG Version: 6.00 Build 0)  -->
<!DOCTYPE svg PUBLIC "-//W3C//DTD SVG 1.1//EN" "http://www.w3.org/Graphics/SVG/1.1/DTD/svg11.dtd">
<svg version="1.1" id="SIGNIN" xmlns="http://www.w3.org/2000/svg" xmlns:xlink="http://www.w3.org/1999/xlink" x="0px" y="0px"
	 width="75px" height="75px" viewBox="0 0 75 75" style="enable-background:new 0 0 75 75;" xml:space="preserve">
<g>
	<defs>
		<rect id="SVGID_1_" width="75" height="75"/>
	</defs>
	<clipPath id="SVGID_2_">
		<use xlink:href="#SVGID_1_"  style="overflow:visible;"/>
	</clipPath>
	<g style="clip-path:url(#SVGID_2_);">
		<path d="M11.492,60.033v6.508c0,0.979-0.282,1.769-0.844,2.353c-0.563,0.599-1.34,0.891-2.342,0.891
			c-1.981,0-2.973-1.171-2.973-3.525V64.3h0.664v1.915c0,0.979,0.214,1.767,0.631,2.364c0.417,0.597,1.036,0.901,1.835,0.901
			c0.653,0,1.205-0.282,1.666-0.846c0.462-0.608,0.699-1.385,0.699-2.319v-4.685l-0.192-1.385L11.492,60.033z"/>
		<path d="M18.709,67.307h-2.286c-0.124,1.317-0.822,2.15-2.117,2.499l-0.18-0.293c0.563-0.212,0.979-0.562,1.261-1.047
			c0.214-0.359,0.327-0.744,0.337-1.159h-1.339c-0.53,0-0.969-0.168-1.295-0.508c-0.35-0.382-0.518-0.899-0.518-1.553
			c0-0.822,0.224-1.476,0.664-1.971c0.45-0.495,1.036-0.743,1.756-0.743h1.43v4.233h2.286V67.307z M15.725,66.766v-3.872h-0.81
			c-1.047,0-1.633,0.82-1.633,2.127c0,1.159,0.428,1.745,1.271,1.745H15.725z"/>
		<path d="M24.361,67.307h-5.968v-0.541l4.978-0.012c-0.203-0.742-0.597-1.554-1.183-2.421c-0.709-1.069-1.351-1.609-1.937-1.609
			c-0.417,0-0.743,0.338-0.743,0.912c0,0.191,0.045,0.417,0.124,0.652l-0.63,0.09c0.101-1.316,0.788-2.116,1.644-2.116
			c0.777,0,1.588,0.664,2.455,1.993C23.888,65.448,24.305,66.462,24.361,67.307z M21.388,60.539c0,0.315-0.168,0.473-0.496,0.473
			c-0.326,0-0.496-0.157-0.496-0.483c0-0.327,0.17-0.495,0.496-0.495C21.163,60.033,21.388,60.257,21.388,60.539z"/>
		<path d="M30.756,67.307h-5.315l0.124-0.541h2.984l0.023-0.215v-1.834c0-1.092-0.417-1.803-1.003-1.803
			c-0.158,0-0.316,0.046-0.462,0.124l0.068-0.651c0.607,0,1.103,0.235,1.487,0.707c0.382,0.464,0.574,1.071,0.585,1.826v1.846h1.508
			V67.307z"/>
		<path d="M33.773,65.753c0,0.979-0.552,1.554-1.453,1.554h-1.88v-0.541h1.611c0.709,0,1.059-0.405,1.059-1.216v-3.919l-0.18-1.385
			l0.844-0.213V65.753z"/>
		<path d="M35.936,60.033l-0.102,1.339v5.935h-0.676v-5.935L35,60.112L35.936,60.033z"/>
		<path d="M46.856,67.307h-1.069c-0.315,0-0.585-0.068-0.811-0.214c-0.112,0.832-0.44,1.486-0.979,1.97
			c-0.563,0.485-1.295,0.722-2.185,0.722c-1.981,0-2.974-1.171-2.974-3.525V64.3h0.666v1.915c0,0.979,0.213,1.767,0.629,2.364
			c0.418,0.597,1.036,0.901,1.837,0.901c0.653,0,1.203-0.294,1.667-0.879c0.461-0.575,0.697-1.34,0.697-2.286v-4.685l-0.191-1.385
			L45,60.033v5.562c0,0.776,0.348,1.171,1.047,1.171h0.81V67.307z"/>
		<path d="M50.584,67.307h-0.71c-0.484,0-0.856-0.158-1.126-0.473c-0.259,0.314-0.607,0.473-1.06,0.473h-1.226v-0.541h0.912
			c0.697,0,1.047-0.405,1.047-1.216v-1.385l-0.18-1.419l0.866-0.214v3.028c0,0.8,0.339,1.205,1.024,1.205h0.451V67.307z
			 M47.645,69.311c0,0.315-0.168,0.474-0.495,0.474s-0.496-0.158-0.496-0.483c0-0.328,0.169-0.496,0.496-0.496
			C47.408,68.805,47.645,69.028,47.645,69.311z M49.131,69.311c0,0.315-0.169,0.474-0.507,0.474c-0.326,0-0.495-0.158-0.495-0.483
			c0-0.328,0.169-0.496,0.495-0.496C48.905,68.805,49.131,69.028,49.131,69.311z"/>
		<path d="M57.306,67.307h-7.004v-0.541l5.596-0.012c-0.202-0.73-0.597-1.53-1.183-2.421c-0.709-1.069-1.361-1.609-1.946-1.609
			c-0.406,0-0.733,0.338-0.733,0.912c0,0.191,0.046,0.417,0.125,0.652l-0.642,0.09c0.102-1.316,0.787-2.116,1.655-2.116
			c0.731,0,1.485,0.586,2.285,1.745c0.642,0.946,1.093,1.858,1.34,2.747h0.507V67.307z M54.107,69.311
			c0,0.326-0.157,0.495-0.484,0.495s-0.495-0.169-0.495-0.495c0-0.338,0.168-0.506,0.495-0.506
			C53.883,68.805,54.107,69.028,54.107,69.311z"/>
		<path d="M67.011,67.307h-0.698c-0.495,0-0.866-0.158-1.125-0.473c-0.26,0.314-0.62,0.473-1.081,0.473
			c-0.642,0-1.161-0.304-1.554-0.924c-0.214,0.62-0.665,0.924-1.329,0.924c-0.586,0-1.093-0.281-1.509-0.845
			c-0.067,0.169-0.157,0.315-0.282,0.439c-0.259,0.27-0.607,0.405-1.047,0.405h-1.317v-0.541h1.036c0.698,0,1.047-0.405,1.047-1.216
			l0.012-2.364l0.664-0.169v2.827c0,0.101-0.011,0.191-0.022,0.28c0.394,0.406,0.777,0.608,1.126,0.608
			c0.687,0,1.037-0.394,1.037-1.193v-2.354l0.663-0.169v3.039c0.395,0.451,0.801,0.677,1.204,0.677c0.677,0,1.015-0.394,1.015-1.193
			v-1.374l-0.191-1.419l0.867-0.214v3.051c0,0.788,0.349,1.183,1.048,1.183h0.438V67.307z"/>
		<path d="M69.667,65.753c0,0.979-0.539,1.554-1.451,1.554h-1.51v-0.541h1.251c0.698,0,1.047-0.405,1.047-1.216v-1.408l-0.18-1.396
			l0.843-0.214V65.753z M68.114,60.539c0,0.315-0.169,0.473-0.495,0.473c-0.328,0-0.496-0.157-0.496-0.483
			c0-0.327,0.168-0.495,0.496-0.495C67.889,60.033,68.114,60.257,68.114,60.539z M69.589,60.539c0,0.315-0.169,0.473-0.495,0.473
			s-0.484-0.157-0.484-0.483c0-0.327,0.158-0.495,0.484-0.495C69.363,60.033,69.589,60.257,69.589,60.539z"/>
	</g>
	<path style="clip-path:url(#SVGID_2_);fill:#F5F5F5;" d="M10.495,29.603c0,14.915,12.089,27.005,27.007,27.005
		c14.913,0,27.003-12.09,27.003-27.005c0-14.914-12.09-27.005-27.003-27.005C22.584,2.598,10.495,14.688,10.495,29.603"/>
	<path style="clip-path:url(#SVGID_2_);fill:#FFFFFF;" d="M37.498,26.195c-1.692,0-3.066,1.375-3.066,3.068
		c0,1.066,0.548,2.004,1.372,2.555v4.146c0,0.578,0.724,1.05,1.618,1.05c0.893,0,1.612-0.472,1.612-1.05v-4.06
		c0.913-0.532,1.534-1.511,1.534-2.642C40.568,27.57,39.193,26.195,37.498,26.195z"/>
	<path style="clip-path:url(#SVGID_2_);fill:#6F3B97;" d="M48.582,20.22H33.139v-3.501c0-2.569,1.955-4.662,4.357-4.662
		c2.406,0,4.362,2.093,4.362,4.662v0.121h1.938v-0.121c0-3.639-2.825-6.6-6.3-6.6c-3.472,0-6.295,2.961-6.295,6.6v3.501h-4.783
		c-2.119,0-3.84,1.882-3.84,4.202v14.249c0,2.319,1.721,4.2,3.84,4.2h22.164c2.121,0,3.84-1.881,3.84-4.2V24.422
		C52.422,22.102,50.703,20.22,48.582,20.22z"/>
	<path style="clip-path:url(#SVGID_2_);fill:#FFFFFF;" d="M39.034,31.905v4.06c0,0.578-0.72,1.05-1.612,1.05
		c-0.895,0-1.618-0.472-1.618-1.05v-4.146c-0.824-0.551-1.372-1.488-1.372-2.555c0-1.693,1.374-3.068,3.066-3.068
		c1.695,0,3.07,1.375,3.07,3.068C40.568,30.395,39.947,31.373,39.034,31.905z"/>
</g>
</svg>
