<?xml version="1.0" encoding="iso-8859-1"?>
<!-- Generator: Adobe Illustrator 16.0.0, SVG Export Plug-In . SVG Version: 6.00 Build 0)  -->
<!DOCTYPE svg PUBLIC "-//W3C//DTD SVG 1.1//EN" "http://www.w3.org/Graphics/SVG/1.1/DTD/svg11.dtd">
<svg version="1.1" id="URCAR" xmlns="http://www.w3.org/2000/svg" xmlns:xlink="http://www.w3.org/1999/xlink" x="0px" y="0px"
	 width="75px" height="75px" viewBox="0 0 75 75" style="enable-background:new 0 0 75 75;" xml:space="preserve">
<g>
	<defs>
		<rect id="SVGID_1_" width="75" height="75"/>
	</defs>
	<clipPath id="SVGID_2_">
		<use xlink:href="#SVGID_1_"  style="overflow:visible;"/>
	</clipPath>
	<circle style="clip-path:url(#SVGID_2_);fill:#F5F5F5;" cx="37.5" cy="29.767" r="27.407"/>
	<g style="clip-path:url(#SVGID_2_);">
		<path d="M31.875,68.576h-1.187c-0.544,0-0.951-0.173-1.235-0.519c-0.284,0.346-0.679,0.519-1.21,0.519h-5.547
			c-1.272,0-2.1-1.025-2.1-2.655c0-0.631,0.123-1.187,0.383-1.655h0.506c-0.246,0.37-0.37,0.827-0.37,1.383
			c0,1.42,0.654,2.335,1.705,2.335h5.126c0.753,0,1.136-0.444,1.136-1.32v-4.276l-0.197-1.556l0.938-0.234v6.066
			c0,0.876,0.384,1.32,1.149,1.32h0.902V68.576z M26.896,64.6h-3.482v-0.408h0.717v-0.421c0-1.1,0.444-1.643,1.321-1.643
			c0.396,0,0.754,0.148,1.062,0.444l0.014,0.013l-0.137,0.21l-0.012-0.024c-0.21-0.161-0.444-0.234-0.68-0.234
			c-0.717,0-1.075,0.444-1.075,1.335v0.32h1.235l0.507-0.063L26.896,64.6z"/>
		<path d="M34.566,66.871c0,1.074-0.593,1.705-1.593,1.705h-1.655v-0.593h1.371c0.766,0,1.148-0.444,1.148-1.335v-1.544
			l-0.197-1.531l0.926-0.235V66.871z M32.861,61.152c0,0.346-0.185,0.519-0.543,0.519s-0.544-0.173-0.544-0.53
			c0-0.359,0.186-0.544,0.544-0.544C32.614,60.597,32.861,60.844,32.861,61.152z M34.479,61.152c0,0.346-0.185,0.519-0.543,0.519
			s-0.531-0.173-0.531-0.53c0-0.359,0.173-0.544,0.531-0.544C34.232,60.597,34.479,60.844,34.479,61.152z"/>
		<path d="M37.259,68.107c0,1.691-0.778,2.754-2.322,3.187l-0.197-0.334c0.63-0.233,1.099-0.617,1.42-1.148
			c0.235-0.408,0.347-0.827,0.347-1.285V65.13l-0.198-1.557l0.951-0.235V68.107z"/>
		<path d="M41.471,68.576h-1.062c-1.052,0-1.582-0.568-1.582-1.705v-4.569l-0.197-1.471l0.938-0.223v6.04
			c0,0.891,0.383,1.335,1.137,1.335h0.766V68.576z"/>
		<path d="M45.571,68.576h-0.777c-0.532,0-0.94-0.173-1.236-0.519c-0.284,0.346-0.667,0.519-1.161,0.519h-1.346v-0.593h1.001
			c0.766,0,1.148-0.444,1.148-1.335V65.13l-0.198-1.557l0.951-0.235v3.325c0,0.876,0.371,1.32,1.125,1.32h0.493V68.576z
			 M42.348,70.774c0,0.346-0.186,0.52-0.544,0.52c-0.357,0-0.544-0.174-0.544-0.531c0-0.358,0.187-0.544,0.544-0.544
			C42.088,70.219,42.348,70.465,42.348,70.774z M43.978,70.774c0,0.346-0.186,0.52-0.556,0.52c-0.358,0-0.544-0.174-0.544-0.531
			c0-0.358,0.186-0.544,0.544-0.544C43.729,70.219,43.978,70.465,43.978,70.774z"/>
		<path d="M54.403,66.871c0,1.039-0.606,1.705-1.556,1.705c-0.705,0-1.272-0.333-1.705-1.013c-0.234,0.68-0.729,1.013-1.457,1.013
			c-0.606,0-1.138-0.271-1.57-0.803c-0.061,0.124-0.147,0.246-0.259,0.358c-0.284,0.296-0.667,0.444-1.149,0.444h-1.445v-0.593
			h1.138c0.765,0,1.147-0.444,1.147-1.335l0.013-2.594l0.729-0.184v3.1c0,0.149-0.013,0.284-0.051,0.42
			c0.396,0.371,0.767,0.555,1.125,0.555c0.754,0,1.136-0.431,1.136-1.309v-2.582l0.729-0.184v3.335
			c0.434,0.493,0.878,0.739,1.321,0.739c0.742,0,1.112-0.431,1.112-1.309V65.13l-0.21-1.557l0.951-0.235V66.871z"/>
	</g>
	<path style="clip-path:url(#SVGID_2_);fill:#E3A15B;" d="M54.383,24.545h-3.102c-0.094,0-0.184,0.01-0.271,0.027l-4.016-6.225
		H27.81l-4.073,6.199c-0.005,0-0.013-0.002-0.021-0.002h-3.098c-0.789,0-1.431,0.642-1.431,1.429v0.956
		c0,0.788,0.642,1.429,1.431,1.429h0.771v1.249v5.186c0,1.558,1.09,2.881,2.607,3.37v1.876c0,0.787,0.639,1.427,1.43,1.427h0.954
		c0.79,0,1.429-0.64,1.429-1.427v-1.668h19.196v1.668c0,0.787,0.641,1.427,1.432,1.427h0.951c0.793,0,1.432-0.64,1.432-1.427v-1.918
		c1.449-0.521,2.477-1.816,2.477-3.328v-5.186v-1.249h1.086c0.787,0,1.428-0.641,1.428-1.429v-0.956
		C55.811,25.187,55.17,24.545,54.383,24.545 M25.905,35.151c-1.055,0-1.908-0.855-1.908-1.908c0-1.055,0.853-1.91,1.908-1.91
		c1.051,0,1.905,0.855,1.905,1.91C27.81,34.296,26.956,35.151,25.905,35.151 M24.581,29.359v-1.191l5.136-7.818h15.346l5.044,7.818
		v1.191H24.581z M48.914,35.151c-1.051,0-1.908-0.855-1.908-1.908c0-1.055,0.857-1.91,1.908-1.91c1.055,0,1.906,0.855,1.906,1.91
		C50.82,34.296,49.969,35.151,48.914,35.151"/>
</g>
</svg>
