<?xml version="1.0" encoding="iso-8859-1"?>
<!-- Generator: Adobe Illustrator 16.0.0, SVG Export Plug-In . SVG Version: 6.00 Build 0)  -->
<!DOCTYPE svg PUBLIC "-//W3C//DTD SVG 1.1//EN" "http://www.w3.org/Graphics/SVG/1.1/DTD/svg11.dtd">
<svg version="1.1" id="DELIVERY" xmlns="http://www.w3.org/2000/svg" xmlns:xlink="http://www.w3.org/1999/xlink" x="0px" y="0px"
	 width="75px" height="75px" viewBox="0 0 75 75" style="enable-background:new 0 0 75 75;" xml:space="preserve">
<g>
	<defs>
		<rect id="SVGID_1_" width="75" height="75"/>
	</defs>
	<clipPath id="SVGID_2_">
		<use xlink:href="#SVGID_1_"  style="overflow:visible;"/>
	</clipPath>
	<circle style="clip-path:url(#SVGID_2_);fill:#F5F5F5;" cx="37.496" cy="29.989" r="27.52"/>
	<g style="clip-path:url(#SVGID_2_);">
		<path d="M33.855,68.319h-1.314c-0.388,0-0.72-0.083-0.997-0.263c-0.138,1.023-0.539,1.825-1.203,2.422
			c-0.692,0.594-1.592,0.884-2.685,0.884c-2.435,0-3.652-1.438-3.652-4.33v-2.407h0.816v2.353c0,1.204,0.263,2.172,0.774,2.904
			c0.513,0.734,1.272,1.107,2.256,1.107c0.802,0,1.48-0.36,2.048-1.078c0.566-0.706,0.857-1.647,0.857-2.81v-5.756l-0.235-1.702
			l1.052-0.262v6.834c0,0.955,0.429,1.439,1.286,1.439h0.997V68.319z"/>
		<path d="M39.974,59.409c0.124,0.388,0.18,0.72,0.18,1.011c0,0.442-0.152,0.691-0.456,0.76c-0.249,0.056-0.43-0.055-0.54-0.317
			c-0.166,0.207-0.331,0.317-0.511,0.317c-0.069,0-0.153-0.026-0.236-0.068c-0.18-0.097-0.262-0.291-0.235-0.609
			c0.015-0.373,0.015-0.609-0.026-0.705c0.026-0.042,0.096-0.138,0.207-0.318c0.097,0.098,0.138,0.221,0.138,0.359
			c0,0.181-0.111,0.54-0.111,0.651c0,0.151,0.111,0.249,0.318,0.276c0.264,0.055,0.375-0.139,0.361-0.415
			c0-0.138-0.028-0.318-0.085-0.554c0.042-0.042,0.111-0.138,0.209-0.318c0.097,0.098,0.139,0.235,0.125,0.414
			c-0.016,0.14-0.043,0.291-0.056,0.444c0,0.221,0.139,0.346,0.428,0.388c0.139,0.026,0.208-0.028,0.208-0.167
			c0-0.125-0.069-0.332-0.193-0.623L39.974,59.409z"/>
		<path d="M44.716,68.319h-8.606v-0.525c-0.346,0.346-0.678,0.525-1.023,0.525h-1.619v-0.664h1.272c0.858,0,1.287-0.498,1.287-1.494
			l0.014-2.906l0.816-0.207v3.21c1.177-2.45,2.753-3.681,4.718-3.681c0.928,0,1.688,0.222,2.27,0.663
			c0.58,0.43,0.872,0.997,0.872,1.689V68.319z M43.857,67.655v-2.477c0-1.204-0.997-1.896-2.589-1.896
			c-1.618,0-3.084,1.452-4.385,4.372H43.857z"/>
		<path d="M50.996,67.794c0,1.896-0.872,3.084-2.602,3.568l-0.222-0.373c1.314-0.484,1.966-1.411,1.966-2.808
			c-0.692,0.18-1.287,0.275-1.772,0.275c-1.273,0-2.103-1.01-2.103-2.671c0-1.009,0.277-1.812,0.816-2.42
			c0.554-0.609,1.273-0.913,2.158-0.913h1.758V67.794z M50.139,67.489v-4.594h-0.998c-1.285,0-2.005,1.011-2.005,2.615
			c0,1.494,0.525,2.242,1.563,2.242C49.128,67.753,49.612,67.669,50.139,67.489z"/>
	</g>
	<path style="clip-path:url(#SVGID_2_);fill:#417A73;" d="M51.346,19.115h-4.387c-0.705,0-1.278,0.52-1.278,1.158V31.12h-3.529
		c1.271-1.106,2.076-2.701,2.076-4.47c0-3.316-2.81-6.031-6.24-6.031H23.223c-3.428,0-6.236,2.715-6.236,6.031
		c0,1.769,0.807,3.363,2.072,4.47h-2.072c-0.518,0-0.938,0.415-0.938,0.933c0,0.521,0.42,0.94,0.938,0.94h2.676
		c0.336-1.634,1.777-2.862,3.511-2.862c1.14,0,2.146,0.537,2.802,1.367c0.659-0.836,1.671-1.367,2.812-1.367
		c1.732,0,3.176,1.229,3.512,2.862h15.277c0.335-1.634,1.777-2.862,3.511-2.862c1.734,0,3.178,1.229,3.513,2.862h2.286
		c0.396,0,0.728-0.249,0.868-0.598c0.273-0.212,0.449-0.525,0.449-0.875l0.083-5.47L51.346,19.115z M53.829,26.822
		c0,0.32-0.288,0.58-0.642,0.58h-4.984c-0.286,0-0.531-0.178-0.611-0.418h-0.03v-0.162v-5.624c0-0.317,0.288-0.579,0.642-0.579
		h2.194l3.432,3.799V26.822z"/>
	<path style="clip-path:url(#SVGID_2_);fill:#417A73;" d="M20.662,33.717c0-1.384,1.124-2.51,2.511-2.51
		c1.389,0,2.513,1.126,2.513,2.51c0,1.391-1.124,2.515-2.513,2.515C21.786,36.231,20.662,35.107,20.662,33.717"/>
	<path style="clip-path:url(#SVGID_2_);fill:#417A73;" d="M26.307,33.717c0-1.384,1.125-2.51,2.514-2.51
		c1.383,0,2.508,1.126,2.508,2.51c0,1.391-1.125,2.515-2.508,2.515C27.432,36.231,26.307,35.107,26.307,33.717"/>
	<path style="clip-path:url(#SVGID_2_);fill:#417A73;" d="M48.732,33.717c0-1.384,1.126-2.51,2.51-2.51
		c1.387,0,2.514,1.126,2.514,2.51c0,1.391-1.127,2.515-2.514,2.515C49.858,36.231,48.732,35.107,48.732,33.717"/>
</g>
</svg>
