<?xml version="1.0" encoding="iso-8859-1"?>
<!-- Generator: Adobe Illustrator 16.0.0, SVG Export Plug-In . SVG Version: 6.00 Build 0)  -->
<!DOCTYPE svg PUBLIC "-//W3C//DTD SVG 1.1//EN" "http://www.w3.org/Graphics/SVG/1.1/DTD/svg11.dtd">
<svg version="1.1" id="EMAIL" xmlns="http://www.w3.org/2000/svg" xmlns:xlink="http://www.w3.org/1999/xlink" x="0px" y="0px"
	 width="75px" height="75px" viewBox="0 0 75 75" style="enable-background:new 0 0 75 75;" xml:space="preserve">
<g>
	<defs>
		<rect id="SVGID_1_" width="75" height="75"/>
	</defs>
	<clipPath id="SVGID_2_">
		<use xlink:href="#SVGID_1_"  style="overflow:visible;"/>
	</clipPath>
	<circle style="clip-path:url(#SVGID_2_);fill:#F5F5F5;" cx="37.635" cy="29.314" r="27.372"/>
	<g style="clip-path:url(#SVGID_2_);">
		<path d="M30.289,69.117h-1.197c-0.548,0-0.96-0.175-1.247-0.523c-0.287,0.349-0.686,0.523-1.222,0.523h-5.598
			c-1.284,0-2.12-1.034-2.12-2.68c0-0.636,0.125-1.196,0.386-1.671h0.511c-0.249,0.374-0.374,0.834-0.374,1.396
			c0,1.434,0.661,2.355,1.721,2.355h5.174c0.76,0,1.146-0.448,1.146-1.334v-4.313l-0.199-1.57l0.947-0.237v6.121
			c0,0.886,0.386,1.334,1.16,1.334h0.91V69.117z M25.265,65.103h-3.516v-0.41h0.723v-0.425c0-1.11,0.449-1.658,1.333-1.658
			c0.399,0,0.761,0.15,1.073,0.449l0.012,0.012l-0.137,0.213l-0.012-0.025c-0.212-0.162-0.449-0.236-0.686-0.236
			c-0.723,0-1.085,0.448-1.085,1.347v0.324h1.248l0.511-0.062L25.265,65.103z"/>
		<path d="M36.97,69.117h-2.43c-0.349,0-0.698-0.037-1.06-0.1c-0.337,0.062-0.686,0.1-1.048,0.1h-2.531v-0.599h2.182
			c-0.711-0.523-1.073-1.234-1.073-2.144c0-1.509,0.911-2.543,2.469-2.543c1.546,0,2.48,1.034,2.48,2.543
			c0,0.909-0.362,1.62-1.097,2.144h2.106V69.117z M35.125,66.287c0-1.297-0.748-2.032-1.645-2.032c-0.449,0-0.823,0.175-1.122,0.512
			c-0.337,0.361-0.512,0.872-0.512,1.521c0,0.625,0.113,1.135,0.337,1.534c0.299,0.474,0.736,0.71,1.321,0.71
			c0.536,0,0.96-0.249,1.26-0.76C35,67.359,35.125,66.873,35.125,66.287z M33.206,61.625c0,0.349-0.175,0.523-0.537,0.523
			c-0.386,0-0.573-0.175-0.573-0.536c0-0.362,0.187-0.549,0.573-0.549C32.956,61.063,33.206,61.312,33.206,61.625z M34.851,61.625
			c0,0.349-0.187,0.523-0.549,0.523c-0.361,0-0.548-0.175-0.548-0.536c0-0.362,0.187-0.549,0.548-0.549
			C34.602,61.063,34.851,61.312,34.851,61.625z"/>
		<path d="M41.096,69.117h-0.785c-0.536,0-0.947-0.175-1.246-0.523c-0.287,0.349-0.673,0.523-1.172,0.523h-1.359v-0.599h1.01
			c0.773,0,1.16-0.448,1.16-1.346v-1.534l-0.2-1.57l0.96-0.236v3.353c0,0.886,0.375,1.334,1.135,1.334h0.498V69.117z M37.843,71.337
			c0,0.349-0.187,0.523-0.549,0.523c-0.36,0-0.549-0.175-0.549-0.536s0.188-0.549,0.549-0.549
			C37.581,70.775,37.843,71.025,37.843,71.337z M39.488,71.337c0,0.349-0.187,0.523-0.561,0.523c-0.362,0-0.549-0.175-0.549-0.536
			s0.187-0.549,0.549-0.549C39.239,70.775,39.488,71.025,39.488,71.337z"/>
		<path d="M45.261,69.117h-0.786c-0.536,0-0.946-0.175-1.246-0.523c-0.287,0.349-0.674,0.523-1.172,0.523h-1.359v-0.599h1.009
			c0.774,0,1.16-0.448,1.16-1.346v-4.302l-0.199-1.57l0.959-0.237v6.121c0,0.886,0.375,1.334,1.135,1.334h0.5V69.117z"/>
		<path d="M53.227,69.117h-2.518c-0.537-0.013-1.036-0.137-1.483-0.373c-0.462,0.224-0.948,0.349-1.459,0.373h0.037h-2.855v-0.599
			h2.705c0.325,0,0.649-0.062,0.973-0.187c-0.087-0.062-0.872-0.86-2.381-2.394c0-0.499,0.273-0.96,0.835-1.396
			c0.611-0.474,1.322-0.71,2.146-0.71c0.822,0,1.532,0.236,2.131,0.71c0.562,0.437,0.836,0.897,0.836,1.396l-2.382,2.394
			c0.312,0.125,0.624,0.187,0.96,0.187h2.456V69.117z M51.356,65.913c0-0.361-0.187-0.672-0.549-0.947
			c-0.411-0.312-0.935-0.474-1.582-0.474c-0.612,0-1.136,0.162-1.56,0.474c-0.373,0.286-0.561,0.611-0.561,0.947
			c0.437,0.438,1.147,1.135,2.132,2.107L51.356,65.913z"/>
		<path d="M56.094,67.396c0,1.085-0.599,1.721-1.608,1.721h-1.671v-0.599h1.385c0.772,0,1.159-0.448,1.159-1.346v-1.559
			l-0.199-1.546l0.935-0.236V67.396z M54.373,61.625c0,0.349-0.187,0.523-0.549,0.523c-0.361,0-0.549-0.175-0.549-0.536
			c0-0.362,0.188-0.549,0.549-0.549C54.123,61.063,54.373,61.312,54.373,61.625z M56.007,61.625c0,0.349-0.188,0.523-0.549,0.523
			s-0.536-0.175-0.536-0.536c0-0.362,0.175-0.549,0.536-0.549C55.757,61.063,56.007,61.312,56.007,61.625z"/>
	</g>
	<path style="clip-path:url(#SVGID_2_);fill:#DE2126;" d="M37.635,10.236c-10.539,0-19.08,8.54-19.08,19.079
		c0,10.536,8.541,19.077,19.08,19.077c10.537,0,19.079-8.541,19.079-19.077C56.714,18.776,48.172,10.236,37.635,10.236
		 M37.635,47.438c-10.012,0-18.126-8.114-18.126-18.124c0-10.012,8.115-18.126,18.126-18.126c10.009,0,18.124,8.115,18.124,18.126
		C55.759,39.324,47.644,47.438,37.635,47.438"/>
	<path style="clip-path:url(#SVGID_2_);fill:#DE2126;" d="M35.724,31.458c0,0.945,0.421,1.541,1.241,1.541
		c0.919,0,1.883-1.166,2.106-2.604l0.351-2.358c-0.199-0.049-0.444-0.098-0.769-0.098C37.014,27.938,35.724,29.551,35.724,31.458"/>
	<path style="clip-path:url(#SVGID_2_);fill:#DE2126;" d="M37.635,14.821c-7.994,0-14.495,6.501-14.495,14.494
		c0,7.991,6.5,14.494,14.495,14.494c7.991,0,14.495-6.502,14.495-14.494C52.13,21.322,45.626,14.821,37.635,14.821 M40.862,34.167
		c-0.998,0-1.721-0.51-1.826-1.636h-0.043c-0.655,1.084-1.614,1.636-2.738,1.636c-1.38,0-2.38-1.02-2.38-2.762
		c0-2.592,1.911-4.946,4.971-4.946c0.934,0,1.997,0.232,2.527,0.529l-0.639,3.929c-0.21,1.251-0.062,1.827,0.531,1.847
		c0.913,0.021,2.061-1.146,2.061-3.587c0-2.761-1.783-4.906-5.074-4.906c-3.25,0-6.098,2.548-6.098,6.603
		c0,3.548,2.275,5.564,5.438,5.564c1.081,0,2.231-0.232,3.081-0.681l0.38,1.234c-1.273,0.57-2.38,0.763-3.886,0.763
		c-3.526,0-6.625-2.526-6.625-6.688c0-4.331,3.143-8.091,7.944-8.091c3.736,0,6.413,2.568,6.413,6.137
		C44.898,32.213,43.157,34.167,40.862,34.167"/>
</g>
</svg>
