<?xml version="1.0" encoding="iso-8859-1"?>
<!-- Generator: Adobe Illustrator 16.0.0, SVG Export Plug-In . SVG Version: 6.00 Build 0)  -->
<!DOCTYPE svg PUBLIC "-//W3C//DTD SVG 1.1//EN" "http://www.w3.org/Graphics/SVG/1.1/DTD/svg11.dtd">
<svg version="1.1" id="Layer_1" xmlns="http://www.w3.org/2000/svg" xmlns:xlink="http://www.w3.org/1999/xlink" x="0px" y="0px"
	 width="106.823px" height="67.509px" viewBox="0 0 106.823 67.509" style="enable-background:new 0 0 106.823 67.509;"
	 xml:space="preserve">
<g>
	<g>
		<defs>
			<rect id="SVGID_1_" x="3.656" y="10.819" width="99.51" height="45.869"/>
		</defs>
		<clipPath id="SVGID_2_">
			<use xlink:href="#SVGID_1_"  style="overflow:visible;"/>
		</clipPath>
		<path style="clip-path:url(#SVGID_2_);fill:#0054A4;" d="M93.194,30.898c0.246,0.069,0.572,0.104,0.979,0.107v0.244h-0.285
			c-0.183,0-0.311,0.026-0.377,0.076c-0.063,0.049-0.135,0.178-0.208,0.388c-0.075,0.212-0.113,0.431-0.113,0.663
			c0,0.378,0.097,0.678,0.287,0.892c0.193,0.218,0.439,0.327,0.737,0.327c0.188,0,0.351-0.046,0.488-0.134
			c0.135-0.089,0.231-0.207,0.294-0.36c0.062-0.147,0.114-0.465,0.158-0.954c0.047-0.488,0.112-0.816,0.188-0.987
			c0.079-0.171,0.204-0.309,0.376-0.413c0.173-0.102,0.378-0.152,0.615-0.152c0.477,0,0.886,0.197,1.228,0.596
			c0.346,0.397,0.515,0.928,0.515,1.59c0,0.228-0.02,0.456-0.067,0.687c-0.046,0.231-0.114,0.463-0.205,0.697
			c-0.285-0.043-0.65-0.063-1.093-0.061v-0.241h0.179c0.229,0,0.37-0.011,0.424-0.033c0.055-0.024,0.112-0.08,0.172-0.169
			c0.097-0.131,0.166-0.285,0.214-0.464c0.049-0.179,0.074-0.375,0.074-0.581c0-0.447-0.105-0.793-0.316-1.037
			c-0.211-0.242-0.479-0.364-0.804-0.364c-0.189,0-0.348,0.042-0.48,0.124c-0.132,0.082-0.229,0.199-0.293,0.347
			c-0.064,0.149-0.111,0.423-0.145,0.827c-0.042,0.536-0.107,0.896-0.191,1.09c-0.085,0.19-0.222,0.34-0.402,0.449
			c-0.185,0.109-0.413,0.163-0.686,0.163c-0.461,0-0.841-0.167-1.132-0.502c-0.293-0.333-0.439-0.792-0.439-1.385
			c0-0.237,0.024-0.473,0.077-0.711C93.012,31.377,93.089,31.137,93.194,30.898"/>
		<path style="clip-path:url(#SVGID_2_);fill:#0054A4;" d="M97.25,29.586c0-0.114,0.038-0.212,0.119-0.291
			c0.08-0.082,0.179-0.121,0.296-0.121c0.112,0,0.209,0.039,0.29,0.121c0.082,0.079,0.122,0.177,0.122,0.291
			c0,0.115-0.04,0.215-0.122,0.296c-0.081,0.081-0.178,0.12-0.29,0.12c-0.117,0-0.216-0.039-0.296-0.12
			C97.288,29.801,97.25,29.701,97.25,29.586"/>
		<path style="clip-path:url(#SVGID_2_);fill:#0054A4;" d="M96.308,24.949v2.059l0.568,0.238c0.379,0.159,0.61,0.24,0.699,0.24
			c0.052,0,0.091-0.015,0.112-0.045c0.024-0.029,0.044-0.105,0.059-0.227l0.041-0.341h0.223c-0.019,0.226-0.026,0.484-0.026,0.768
			c0,0.341,0.008,0.642,0.026,0.899h-0.223l-0.005-0.108c-0.005-0.166-0.023-0.272-0.053-0.321c-0.029-0.047-0.101-0.1-0.218-0.152
			c-0.339-0.17-0.708-0.342-1.105-0.517l-2.209-0.978c-0.586-0.26-1.015-0.438-1.279-0.533v-0.238l4.179-1.799
			c0.283-0.12,0.456-0.203,0.512-0.242c0.061-0.038,0.101-0.085,0.125-0.139c0.025-0.053,0.044-0.168,0.054-0.352h0.223
			c-0.019,0.307-0.026,0.603-0.026,0.88c0,0.26,0.008,0.606,0.026,1.041h-0.223l-0.024-0.352c-0.009-0.125-0.021-0.2-0.037-0.223
			c-0.029-0.037-0.06-0.053-0.102-0.053c-0.041,0-0.15,0.034-0.331,0.104L96.308,24.949z M96.014,26.874v-1.791l-2.13,0.896
			L96.014,26.874z"/>
		<path style="clip-path:url(#SVGID_2_);fill:#0054A4;" d="M97.25,22.114c0-0.111,0.038-0.208,0.119-0.291
			c0.08-0.081,0.179-0.12,0.296-0.12c0.112,0,0.209,0.039,0.29,0.12c0.082,0.083,0.122,0.18,0.122,0.291
			c0,0.117-0.04,0.216-0.122,0.296c-0.081,0.082-0.178,0.122-0.29,0.122c-0.117,0-0.216-0.04-0.296-0.122
			C97.288,22.33,97.25,22.231,97.25,22.114"/>
		<path style="clip-path:url(#SVGID_2_);fill:#0054A4;" d="M97.66,19.629c0.013-0.23,0.02-0.459,0.02-0.68
			c0-0.443-0.013-0.79-0.035-1.041c-0.023-0.175-0.057-0.355-0.104-0.544l-0.835-0.211v-0.231c0.446,0.059,0.864,0.107,1.253,0.141
			c0.035,0.212,0.054,0.503,0.054,0.872l-0.028,1.689c0,0.227,0.013,0.579,0.038,1.062H97.83c-0.081-0.191-0.17-0.302-0.265-0.335
			c-0.096-0.037-0.472-0.055-1.125-0.055h-1.954c-0.709,0-1.104,0.018-1.187,0.055c-0.079,0.031-0.122,0.129-0.122,0.286v0.387
			h-0.222c0.018-0.563,0.025-0.937,0.025-1.123c0-0.244-0.008-0.578-0.025-0.999h0.222v0.438c0,0.125,0.036,0.205,0.109,0.24
			c0.07,0.03,0.372,0.048,0.898,0.048h2.264l1.002-0.01L97.66,19.629z"/>
		<path style="clip-path:url(#SVGID_2_);fill:#0054A4;" d="M19.711,33.758h-4.385v-0.925c0.114-0.015,0.287-0.042,0.508-0.077
			c0.226-0.032,0.376-0.086,0.46-0.155c0.148-0.103,0.255-0.261,0.324-0.474c0.068-0.211,0.102-0.485,0.102-0.823v-6.556h-4.986
			v6.412c0,0.302,0.03,0.56,0.089,0.766c0.057,0.208,0.17,0.39,0.341,0.547c0.085,0.076,0.235,0.154,0.454,0.232
			c0.217,0.078,0.388,0.121,0.513,0.128v0.925H8.743v-0.925c0.116-0.015,0.288-0.042,0.51-0.077
			c0.223-0.032,0.376-0.086,0.461-0.155c0.145-0.103,0.254-0.261,0.322-0.474c0.069-0.211,0.103-0.485,0.103-0.823v-13.29
			c0-0.275-0.033-0.53-0.095-0.761c-0.066-0.227-0.176-0.406-0.33-0.537c-0.134-0.112-0.293-0.212-0.482-0.299
			c-0.19-0.086-0.352-0.139-0.488-0.156v-0.923h4.387v0.923c-0.139,0.01-0.311,0.05-0.513,0.118
			c-0.202,0.07-0.354,0.135-0.454,0.192c-0.171,0.106-0.284,0.279-0.341,0.521c-0.059,0.24-0.089,0.504-0.089,0.788v5.7h4.986
			v-5.569c0-0.276-0.03-0.529-0.094-0.758c-0.064-0.228-0.174-0.406-0.332-0.537c-0.132-0.112-0.291-0.212-0.481-0.299
			c-0.188-0.086-0.352-0.139-0.486-0.156v-0.923h4.385v0.923c-0.138,0.01-0.308,0.05-0.512,0.118
			c-0.201,0.07-0.356,0.135-0.452,0.192c-0.172,0.106-0.287,0.279-0.343,0.521c-0.059,0.243-0.09,0.508-0.09,0.793V31.16
			c0,0.305,0.031,0.56,0.09,0.766c0.056,0.208,0.171,0.39,0.343,0.547c0.083,0.076,0.233,0.154,0.452,0.232s0.39,0.121,0.512,0.128
			V33.758z"/>
		<path style="clip-path:url(#SVGID_2_);fill:#0054A4;" d="M61.335,25.798c0,1.686-0.181,3.149-0.548,4.388
			c-0.364,1.24-0.835,2.252-1.421,3.045c-0.592,0.792-1.251,1.385-1.985,1.771c-0.73,0.393-1.488,0.589-2.271,0.589h-4.723v-0.992
			c0.156,0,0.359-0.024,0.611-0.075c0.252-0.053,0.417-0.112,0.5-0.175c0.161-0.125,0.279-0.302,0.353-0.54
			c0.074-0.236,0.11-0.522,0.11-0.859V18.646c0-0.314-0.033-0.603-0.094-0.85c-0.062-0.252-0.185-0.452-0.367-0.602
			c-0.167-0.14-0.349-0.243-0.54-0.307c-0.193-0.065-0.363-0.107-0.501-0.125v-0.995h4.976c0.684,0,1.357,0.186,2.022,0.553
			c0.664,0.367,1.241,0.864,1.733,1.488c0.671,0.828,1.194,1.913,1.571,3.255C61.146,22.404,61.335,23.984,61.335,25.798
			 M59.4,25.791c0-1.328-0.1-2.528-0.305-3.604c-0.204-1.071-0.502-2.008-0.893-2.809c-0.369-0.762-0.826-1.359-1.365-1.796
			c-0.54-0.437-1.139-0.657-1.8-0.657c-0.219,0-0.468,0.009-0.745,0.021c-0.278,0.016-0.481,0.025-0.615,0.037v15.205
			c0,0.846,0.141,1.431,0.425,1.758c0.287,0.322,0.723,0.487,1.316,0.487c0.681,0,1.276-0.211,1.785-0.628
			c0.511-0.42,0.925-0.999,1.239-1.743c0.331-0.781,0.576-1.686,0.731-2.71C59.326,28.325,59.4,27.14,59.4,25.791"/>
		<path style="clip-path:url(#SVGID_2_);fill:#0054A4;" d="M67.782,35.591h-5.153v-0.992c0.144-0.02,0.355-0.047,0.629-0.084
			c0.274-0.037,0.468-0.092,0.578-0.166c0.179-0.123,0.31-0.288,0.389-0.497c0.08-0.211,0.121-0.502,0.121-0.873V18.617
			c0-0.323-0.029-0.598-0.088-0.815c-0.06-0.219-0.201-0.401-0.422-0.552c-0.156-0.111-0.361-0.217-0.607-0.315
			c-0.244-0.096-0.447-0.154-0.6-0.173v-0.994h5.153v0.994c-0.169,0.009-0.367,0.047-0.598,0.105s-0.433,0.136-0.606,0.23
			c-0.204,0.108-0.34,0.292-0.412,0.544c-0.071,0.25-0.102,0.531-0.102,0.837v14.348c0,0.306,0.036,0.577,0.113,0.814
			c0.08,0.238,0.213,0.428,0.4,0.568c0.115,0.073,0.299,0.155,0.553,0.243c0.256,0.089,0.473,0.136,0.651,0.146V35.591z"/>
		<path style="clip-path:url(#SVGID_2_);fill:#0054A4;" d="M74.237,36.056c-0.682,0-1.334-0.235-1.96-0.7
			c-0.622-0.467-1.176-1.134-1.657-2.01c-0.478-0.876-0.858-1.946-1.144-3.209c-0.282-1.26-0.426-2.683-0.426-4.265
			c0-1.585,0.143-3.022,0.42-4.311c0.281-1.289,0.668-2.4,1.164-3.333c0.487-0.92,1.066-1.633,1.733-2.138
			c0.666-0.504,1.379-0.753,2.136-0.753c0.566,0,1.075,0.12,1.533,0.362c0.459,0.239,0.893,0.582,1.31,1.018l0.329-0.95h0.609
			l0.069,7.051H77.71c-0.085-0.688-0.215-1.433-0.385-2.233c-0.172-0.801-0.372-1.482-0.603-2.036
			c-0.256-0.633-0.562-1.126-0.917-1.481c-0.352-0.36-0.757-0.539-1.216-0.539c-0.517,0-1.001,0.201-1.449,0.602
			c-0.446,0.402-0.831,0.991-1.158,1.772c-0.311,0.755-0.557,1.714-0.734,2.876c-0.177,1.161-0.264,2.46-0.264,3.892
			c0,1.27,0.095,2.432,0.276,3.484c0.184,1.058,0.445,1.984,0.792,2.785c0.341,0.79,0.746,1.41,1.215,1.856
			c0.464,0.448,0.988,0.672,1.567,0.672c0.431,0,0.828-0.119,1.191-0.359c0.365-0.236,0.681-0.55,0.946-0.941
			c0.27-0.411,0.502-0.876,0.706-1.396c0.203-0.521,0.369-1.09,0.499-1.705l0.606,0.502c-0.459,1.97-1.067,3.375-1.832,4.221
			C76.19,35.632,75.288,36.056,74.237,36.056"/>
		<path style="clip-path:url(#SVGID_2_);fill:#0054A4;" d="M89.012,18.125c0.505,0.912,0.899,2.011,1.185,3.299
			c0.286,1.288,0.427,2.714,0.427,4.277c0,1.57-0.144,3.001-0.434,4.284c-0.291,1.283-0.695,2.376-1.211,3.278
			c-0.499,0.893-1.08,1.581-1.74,2.066c-0.657,0.481-1.36,0.723-2.107,0.723c-0.795,0-1.529-0.257-2.204-0.772
			c-0.672-0.517-1.253-1.235-1.732-2.157c-0.484-0.901-0.866-1.996-1.142-3.285c-0.275-1.287-0.412-2.667-0.412-4.137
			c0-1.609,0.143-3.044,0.433-4.304c0.291-1.262,0.69-2.352,1.2-3.272c0.503-0.911,1.091-1.608,1.761-2.094s1.366-0.725,2.097-0.725
			c0.757,0,1.468,0.244,2.142,0.737C87.943,16.538,88.523,17.23,89.012,18.125 M87.827,32.151c0.302-0.846,0.52-1.803,0.66-2.87
			c0.135-1.068,0.203-2.262,0.203-3.58c0-1.355-0.076-2.601-0.229-3.733c-0.153-1.134-0.379-2.101-0.678-2.897
			c-0.298-0.789-0.668-1.404-1.114-1.847c-0.45-0.44-0.959-0.662-1.538-0.662c-0.646,0-1.2,0.256-1.648,0.767
			c-0.455,0.512-0.825,1.195-1.113,2.049c-0.268,0.817-0.466,1.773-0.602,2.867c-0.132,1.098-0.196,2.25-0.196,3.457
			c0,1.336,0.071,2.545,0.211,3.619c0.141,1.079,0.361,2.037,0.661,2.873c0.293,0.815,0.661,1.453,1.101,1.915
			c0.443,0.46,0.971,0.688,1.587,0.688c0.579,0,1.099-0.232,1.56-0.696C87.157,33.636,87.535,32.987,87.827,32.151"/>
		<path style="clip-path:url(#SVGID_2_);fill:#0054A4;" d="M23.668,27.291c0,0-1.896-0.981-1.29-11.855c0,0,0.229-4,3.263-3.859
			c0,0,14.943,0.211,21.163,1.825c0,0-16.29-0.063-20.577,0.271c0,0-2.191-0.252-2.371,3.376
			C23.855,17.049,23.208,24.881,23.668,27.291"/>
		<path style="clip-path:url(#SVGID_2_);fill:#0054A4;" d="M47.128,24.396c0,0,1.896,0.981,1.289,11.856c0,0-0.227,3.999-3.262,3.86
			c0,0-14.943-0.211-21.163-1.824c0,0,16.289,0.063,20.577-0.275c0,0,2.188,0.254,2.372-3.373
			C46.941,34.64,47.589,26.809,47.128,24.396"/>
		<path style="clip-path:url(#SVGID_2_);fill:#0054A4;" d="M44.195,17.219c0,0-11.584-2.111-19.338,10.039
			c0,0-1.095,2.36-1.095,3.879c0,0,0.456,2.953,2.007-0.842C25.77,30.295,28.961,21.351,44.195,17.219"/>
		<path style="clip-path:url(#SVGID_2_);fill:#0054A4;" d="M26.683,34.621c0,0,11.583,2.11,19.335-10.037
			c0,0,1.095-2.365,1.095-3.882c0,0-0.453-2.95-2.004,0.843C45.108,21.545,41.914,30.486,26.683,34.621"/>
		<path style="clip-path:url(#SVGID_2_);fill:#0054A4;" d="M59.956,10.822c0,0-16.488,4.753-46.453,31.974
			c0,0-0.707,2.298,1.774,0.985C15.277,43.781,37.264,21.314,59.956,10.822"/>
		<path style="clip-path:url(#SVGID_2_);fill:#BEC0C2;" d="M22.656,27.291c0,0-1.894-0.981-1.287-11.855c0,0,0.227-4,3.263-3.859
			c0,0,14.942,0.211,21.163,1.825c0,0-16.292-0.063-20.58,0.271c0,0-2.188-0.252-2.369,3.376
			C22.846,17.049,22.198,24.881,22.656,27.291"/>
		<path style="clip-path:url(#SVGID_2_);fill:#BEC0C2;" d="M46.121,24.394c0,0,1.894,0.983,1.287,11.86c0,0-0.229,3.997-3.262,3.858
			c0,0-14.944-0.213-21.164-1.824c0,0,16.29,0.063,20.578-0.272c0,0,2.188,0.25,2.371-3.376
			C45.932,34.64,46.579,26.809,46.121,24.394"/>
		<path style="clip-path:url(#SVGID_2_);fill:#FFE363;" d="M43.186,17.219c0,0-11.585-2.111-19.336,10.039
			c0,0-1.095,2.36-1.095,3.879c0,0,0.455,2.953,2.007-0.842C24.762,30.295,27.951,21.349,43.186,17.219"/>
		<path style="clip-path:url(#SVGID_2_);fill:#FFE363;" d="M25.671,34.621c0,0,11.586,2.11,19.34-10.037
			c0,0,1.093-2.365,1.093-3.882c0,0-0.456-2.953-2.006,0.843C44.098,21.545,40.905,30.486,25.671,34.621"/>
		<path style="clip-path:url(#SVGID_2_);fill:#FFE363;" d="M58.946,10.819c0,0-16.489,4.756-46.453,31.977
			c0,0-0.706,2.296,1.775,0.983C14.269,43.779,36.253,21.314,58.946,10.819"/>
		<path style="clip-path:url(#SVGID_2_);fill:#263A95;" d="M103.165,46.109c0,0-49.985,0.853-49.753,0.853
			c0.23,0-49.755-0.853-49.755-0.853s49.277-0.372,49.755-0.372C53.889,45.737,103.165,46.109,103.165,46.109"/>
		<path style="clip-path:url(#SVGID_2_);fill:#999998;" d="M103.165,46.109c0,0-50.159,0.105-49.753,0.105
			c0.404,0-49.755-0.105-49.755-0.105s49.39-1.12,49.755-1.12C53.775,44.989,103.165,46.109,103.165,46.109"/>
		<path style="clip-path:url(#SVGID_2_);fill:none;stroke:#747575;" d="M103.165,46.109c0,0-50.159,0.105-49.753,0.105
			c0.404,0-49.755-0.105-49.755-0.105s49.39-1.12,49.755-1.12C53.775,44.989,103.165,46.109,103.165,46.109z"/>
	</g>
	<g>
		<path style="fill:#0054A4;" d="M22.838,53.815c-0.016,0.066-0.038,0.12-0.067,0.158c-0.029,0.041-0.073,0.071-0.132,0.092
			c-0.057,0.021-0.132,0.035-0.223,0.041c-0.091,0.007-0.208,0.011-0.348,0.011c-0.157,0-0.283-0.004-0.38-0.011
			c-0.095-0.006-0.169-0.02-0.225-0.041c-0.055-0.021-0.094-0.051-0.119-0.092c-0.025-0.038-0.044-0.092-0.059-0.158l-0.856-3.393
			h-0.008l-0.812,3.393c-0.014,0.063-0.034,0.115-0.059,0.155s-0.064,0.071-0.118,0.094c-0.054,0.021-0.126,0.036-0.219,0.042
			c-0.092,0.007-0.215,0.011-0.367,0.011c-0.158,0-0.285-0.004-0.383-0.011c-0.094-0.006-0.17-0.02-0.225-0.041
			c-0.056-0.021-0.096-0.051-0.121-0.092c-0.023-0.038-0.044-0.092-0.062-0.158l-1.216-4.673c-0.025-0.1-0.038-0.177-0.042-0.233
			c-0.002-0.056,0.013-0.101,0.048-0.131c0.034-0.029,0.092-0.05,0.17-0.056c0.078-0.007,0.188-0.011,0.329-0.011
			c0.13,0,0.231,0.003,0.309,0.007c0.075,0.004,0.132,0.014,0.171,0.029c0.038,0.015,0.065,0.036,0.078,0.065
			c0.015,0.028,0.025,0.07,0.033,0.123l0.94,4.101h0.004l0.978-4.071c0.01-0.053,0.025-0.096,0.043-0.129
			c0.018-0.034,0.049-0.059,0.092-0.078c0.042-0.017,0.1-0.03,0.176-0.036c0.074-0.007,0.173-0.011,0.297-0.011
			c0.133,0,0.238,0.003,0.317,0.009c0.079,0.007,0.139,0.018,0.182,0.034c0.042,0.019,0.073,0.044,0.094,0.077
			c0.018,0.034,0.034,0.077,0.046,0.134l1.009,4.071h0.008l0.939-4.09c0.008-0.043,0.02-0.081,0.033-0.113
			c0.013-0.031,0.041-0.056,0.079-0.075c0.038-0.017,0.093-0.03,0.166-0.036c0.071-0.007,0.172-0.011,0.301-0.011
			c0.122,0,0.216,0.004,0.285,0.011c0.066,0.006,0.117,0.026,0.146,0.056c0.03,0.03,0.043,0.075,0.04,0.135
			c-0.005,0.059-0.019,0.139-0.043,0.243L22.838,53.815z"/>
		<path style="fill:#0054A4;" d="M30.52,53.815c-0.017,0.066-0.038,0.12-0.067,0.158c-0.029,0.041-0.072,0.071-0.131,0.092
			c-0.058,0.021-0.133,0.035-0.225,0.041c-0.089,0.007-0.206,0.011-0.347,0.011c-0.157,0-0.282-0.004-0.379-0.011
			c-0.095-0.006-0.171-0.02-0.225-0.041c-0.056-0.021-0.096-0.051-0.12-0.092c-0.025-0.038-0.044-0.092-0.059-0.158l-0.855-3.393
			h-0.009l-0.812,3.393c-0.013,0.063-0.033,0.115-0.058,0.155s-0.065,0.071-0.119,0.094c-0.053,0.021-0.127,0.036-0.219,0.042
			c-0.092,0.007-0.214,0.011-0.367,0.011c-0.159,0-0.286-0.004-0.382-0.011c-0.096-0.006-0.171-0.02-0.227-0.041
			c-0.054-0.021-0.095-0.051-0.118-0.092c-0.026-0.038-0.047-0.092-0.062-0.158l-1.217-4.673c-0.024-0.1-0.04-0.177-0.042-0.233
			c-0.003-0.056,0.014-0.101,0.048-0.131c0.033-0.029,0.091-0.05,0.168-0.056c0.079-0.007,0.19-0.011,0.33-0.011
			c0.13,0,0.233,0.003,0.309,0.007c0.076,0.004,0.134,0.014,0.172,0.029c0.038,0.015,0.065,0.036,0.079,0.065
			c0.013,0.028,0.025,0.07,0.033,0.123l0.94,4.101h0.002l0.978-4.071c0.012-0.053,0.025-0.096,0.043-0.129
			c0.02-0.034,0.05-0.059,0.092-0.078c0.042-0.017,0.101-0.03,0.175-0.036c0.076-0.007,0.175-0.011,0.298-0.011
			c0.133,0,0.239,0.003,0.318,0.009c0.079,0.007,0.14,0.018,0.182,0.034c0.043,0.019,0.073,0.044,0.094,0.077
			c0.018,0.034,0.033,0.077,0.045,0.134l1.01,4.071h0.008l0.94-4.09c0.008-0.043,0.02-0.081,0.033-0.113
			c0.013-0.031,0.038-0.056,0.079-0.075c0.038-0.017,0.092-0.03,0.165-0.036c0.071-0.007,0.171-0.011,0.301-0.011
			c0.122,0,0.217,0.004,0.284,0.011c0.067,0.006,0.116,0.026,0.146,0.056c0.03,0.03,0.044,0.075,0.04,0.135
			c-0.004,0.059-0.02,0.139-0.044,0.243L30.52,53.815z"/>
		<path style="fill:#0054A4;" d="M38.202,53.815c-0.018,0.066-0.04,0.12-0.069,0.158c-0.027,0.041-0.072,0.071-0.13,0.092
			c-0.059,0.021-0.132,0.035-0.224,0.041c-0.092,0.007-0.207,0.011-0.347,0.011c-0.158,0-0.284-0.004-0.38-0.011
			c-0.094-0.006-0.171-0.02-0.226-0.041c-0.055-0.021-0.096-0.051-0.119-0.092c-0.024-0.038-0.045-0.092-0.059-0.158l-0.857-3.393
			h-0.008l-0.811,3.393c-0.014,0.063-0.033,0.115-0.059,0.155s-0.063,0.071-0.117,0.094c-0.054,0.021-0.127,0.036-0.219,0.042
			c-0.093,0.007-0.216,0.011-0.367,0.011c-0.16,0-0.288-0.004-0.382-0.011c-0.096-0.006-0.171-0.02-0.228-0.041
			c-0.053-0.021-0.094-0.051-0.119-0.092c-0.025-0.038-0.045-0.092-0.062-0.158l-1.217-4.673c-0.022-0.1-0.038-0.177-0.041-0.233
			c-0.002-0.056,0.013-0.101,0.048-0.131c0.034-0.029,0.091-0.05,0.169-0.056c0.079-0.007,0.188-0.011,0.329-0.011
			c0.13,0,0.232,0.003,0.308,0.007c0.077,0.004,0.134,0.014,0.174,0.029c0.038,0.015,0.063,0.036,0.079,0.065
			c0.013,0.028,0.023,0.07,0.033,0.123l0.938,4.101h0.005l0.976-4.071c0.013-0.053,0.025-0.096,0.045-0.129
			c0.018-0.034,0.048-0.059,0.09-0.078c0.044-0.017,0.103-0.03,0.177-0.036c0.073-0.007,0.174-0.011,0.298-0.011
			c0.133,0,0.238,0.003,0.315,0.009c0.079,0.007,0.141,0.018,0.184,0.034c0.044,0.019,0.074,0.044,0.092,0.077
			c0.021,0.034,0.036,0.077,0.046,0.134l1.011,4.071h0.009l0.938-4.09c0.009-0.043,0.02-0.081,0.033-0.113
			c0.015-0.031,0.04-0.056,0.079-0.075c0.039-0.017,0.093-0.03,0.164-0.036c0.073-0.007,0.174-0.011,0.304-0.011
			c0.121,0,0.215,0.004,0.282,0.011c0.069,0.006,0.117,0.026,0.148,0.056c0.03,0.03,0.043,0.075,0.038,0.135
			c-0.003,0.059-0.018,0.139-0.043,0.243L38.202,53.815z"/>
		<path style="fill:#0054A4;" d="M40.68,53.496c0,0.257-0.044,0.431-0.134,0.517c-0.09,0.09-0.251,0.133-0.481,0.133
			c-0.232,0-0.393-0.043-0.481-0.129c-0.088-0.086-0.133-0.252-0.133-0.495c0-0.26,0.046-0.432,0.136-0.521
			c0.089-0.089,0.252-0.132,0.486-0.132c0.229,0,0.388,0.042,0.476,0.128C40.636,53.084,40.68,53.251,40.68,53.496z"/>
		<path style="fill:#0054A4;" d="M45.961,53.943c0,0.027-0.009,0.053-0.027,0.075c-0.017,0.021-0.047,0.039-0.089,0.053
			c-0.042,0.015-0.096,0.026-0.165,0.035c-0.068,0.006-0.156,0.011-0.262,0.011c-0.107,0-0.196-0.005-0.265-0.011
			c-0.071-0.009-0.128-0.021-0.166-0.035c-0.041-0.014-0.07-0.031-0.088-0.053c-0.018-0.022-0.026-0.048-0.026-0.075v-2.164H42.87
			v2.164c0,0.027-0.009,0.053-0.025,0.075c-0.017,0.021-0.046,0.039-0.087,0.053c-0.041,0.015-0.097,0.026-0.166,0.035
			c-0.068,0.006-0.157,0.011-0.265,0.011c-0.105,0-0.192-0.005-0.263-0.011c-0.071-0.009-0.127-0.021-0.168-0.035
			c-0.041-0.014-0.071-0.031-0.089-0.053c-0.018-0.022-0.026-0.048-0.026-0.075v-5.059c0-0.025,0.009-0.051,0.026-0.073
			c0.018-0.021,0.048-0.041,0.089-0.054s0.097-0.025,0.168-0.033c0.07-0.009,0.157-0.013,0.263-0.013
			c0.107,0,0.196,0.004,0.265,0.013c0.069,0.008,0.125,0.021,0.166,0.033s0.07,0.032,0.087,0.054
			c0.017,0.022,0.025,0.048,0.025,0.073v1.968h2.003v-1.968c0-0.025,0.009-0.051,0.026-0.073c0.018-0.021,0.047-0.041,0.088-0.054
			c0.038-0.013,0.095-0.025,0.166-0.033c0.068-0.009,0.157-0.013,0.265-0.013c0.105,0,0.193,0.004,0.262,0.013
			c0.069,0.008,0.123,0.021,0.165,0.033s0.072,0.032,0.089,0.054c0.019,0.022,0.027,0.048,0.027,0.073V53.943z"/>
		<path style="fill:#0054A4;" d="M51.946,51.354c0,0.444-0.057,0.842-0.166,1.19c-0.109,0.352-0.275,0.648-0.493,0.894
			c-0.218,0.244-0.487,0.429-0.809,0.559c-0.321,0.128-0.693,0.191-1.115,0.191c-0.416,0-0.78-0.055-1.092-0.163
			c-0.31-0.109-0.568-0.275-0.774-0.499c-0.208-0.223-0.363-0.508-0.466-0.852c-0.104-0.345-0.156-0.754-0.156-1.226
			c0-0.433,0.057-0.823,0.166-1.171c0.109-0.345,0.275-0.639,0.493-0.883c0.218-0.242,0.488-0.429,0.809-0.558
			c0.321-0.13,0.694-0.195,1.12-0.195c0.405,0,0.764,0.054,1.074,0.161c0.311,0.108,0.569,0.273,0.777,0.498
			c0.209,0.223,0.365,0.504,0.471,0.845C51.893,50.486,51.946,50.89,51.946,51.354z M50.803,51.41c0-0.28-0.021-0.537-0.065-0.767
			c-0.045-0.232-0.119-0.429-0.226-0.593c-0.107-0.163-0.247-0.289-0.425-0.381c-0.177-0.089-0.397-0.135-0.661-0.135
			c-0.268,0-0.491,0.052-0.671,0.151c-0.18,0.101-0.325,0.237-0.435,0.404c-0.111,0.169-0.188,0.364-0.234,0.59
			s-0.067,0.464-0.067,0.713c0,0.293,0.021,0.557,0.064,0.79c0.045,0.232,0.12,0.431,0.225,0.598
			c0.104,0.164,0.246,0.29,0.423,0.378c0.176,0.087,0.397,0.13,0.665,0.13s0.491-0.049,0.671-0.147
			c0.18-0.101,0.325-0.234,0.435-0.406c0.11-0.171,0.188-0.371,0.234-0.599C50.78,51.91,50.803,51.666,50.803,51.41z"/>
		<path style="fill:#0054A4;" d="M57.31,51.336c0,0.491-0.063,0.911-0.192,1.261c-0.129,0.349-0.312,0.633-0.555,0.854
			c-0.237,0.222-0.529,0.384-0.873,0.487c-0.345,0.104-0.753,0.156-1.229,0.156h-1.278c-0.09,0-0.166-0.028-0.23-0.081
			c-0.061-0.056-0.092-0.143-0.092-0.264v-4.668c0-0.122,0.031-0.209,0.092-0.264c0.064-0.054,0.141-0.079,0.23-0.079h1.375
			c0.477,0,0.882,0.054,1.214,0.166c0.333,0.113,0.613,0.276,0.84,0.497c0.229,0.22,0.402,0.49,0.52,0.813
			C57.251,50.537,57.31,50.911,57.31,51.336z M56.184,51.373c0-0.253-0.029-0.489-0.09-0.707c-0.059-0.218-0.153-0.406-0.285-0.568
			c-0.131-0.159-0.298-0.283-0.504-0.374c-0.207-0.089-0.477-0.133-0.811-0.133h-0.549v3.642h0.566c0.298,0,0.549-0.04,0.753-0.116
			c0.205-0.078,0.375-0.195,0.511-0.351c0.138-0.154,0.24-0.35,0.308-0.582C56.15,51.953,56.184,51.683,56.184,51.373z"/>
		<path style="fill:#0054A4;" d="M59.296,53.943c0,0.027-0.009,0.053-0.027,0.075c-0.018,0.021-0.048,0.039-0.089,0.053
			c-0.041,0.015-0.097,0.026-0.166,0.035c-0.068,0.006-0.157,0.011-0.265,0.011c-0.104,0-0.19-0.005-0.263-0.011
			c-0.069-0.009-0.127-0.021-0.168-0.035c-0.041-0.014-0.07-0.031-0.088-0.053c-0.019-0.022-0.026-0.048-0.026-0.075v-5.059
			c0-0.025,0.008-0.051,0.026-0.073c0.018-0.021,0.047-0.041,0.091-0.054c0.043-0.013,0.1-0.025,0.168-0.033
			c0.069-0.009,0.155-0.013,0.26-0.013c0.107,0,0.196,0.004,0.265,0.013c0.069,0.008,0.125,0.021,0.166,0.033
			s0.071,0.032,0.089,0.054c0.019,0.022,0.027,0.048,0.027,0.073V53.943z"/>
		<path style="fill:#0054A4;" d="M64.166,53.282c0,0.068,0,0.127-0.005,0.174c-0.005,0.05-0.01,0.091-0.018,0.126
			c-0.011,0.035-0.021,0.064-0.034,0.09c-0.015,0.024-0.036,0.051-0.065,0.084c-0.03,0.03-0.089,0.072-0.177,0.122
			c-0.088,0.049-0.192,0.096-0.318,0.143c-0.127,0.045-0.27,0.083-0.431,0.113c-0.162,0.031-0.337,0.046-0.524,0.046
			c-0.365,0-0.697-0.056-0.993-0.169s-0.546-0.282-0.752-0.507c-0.208-0.225-0.365-0.508-0.477-0.843
			c-0.109-0.337-0.165-0.729-0.165-1.176c0-0.456,0.061-0.858,0.182-1.213c0.121-0.353,0.291-0.649,0.509-0.889
			c0.219-0.241,0.479-0.425,0.784-0.547c0.306-0.125,0.641-0.187,1.008-0.187c0.149,0,0.292,0.014,0.431,0.037
			c0.138,0.024,0.267,0.058,0.383,0.097c0.118,0.041,0.223,0.087,0.316,0.14c0.095,0.053,0.158,0.097,0.196,0.135
			c0.038,0.037,0.064,0.067,0.077,0.093c0.014,0.023,0.025,0.056,0.032,0.095c0.008,0.039,0.016,0.085,0.02,0.138
			c0.004,0.052,0.007,0.115,0.007,0.193c0,0.083-0.003,0.152-0.008,0.211c-0.007,0.058-0.016,0.106-0.031,0.142
			c-0.013,0.035-0.027,0.062-0.048,0.078s-0.042,0.025-0.066,0.025c-0.042,0-0.094-0.025-0.158-0.074
			c-0.063-0.047-0.145-0.101-0.246-0.16c-0.101-0.061-0.22-0.113-0.36-0.16c-0.139-0.049-0.306-0.074-0.499-0.074
			c-0.212,0-0.4,0.045-0.568,0.131c-0.167,0.087-0.309,0.211-0.427,0.372c-0.116,0.162-0.205,0.356-0.267,0.586
			c-0.061,0.229-0.092,0.488-0.092,0.773c0,0.314,0.033,0.587,0.099,0.818c0.064,0.229,0.156,0.42,0.276,0.567
			c0.121,0.15,0.265,0.262,0.436,0.336c0.168,0.071,0.359,0.107,0.573,0.107c0.194,0,0.359-0.021,0.501-0.067
			c0.14-0.047,0.261-0.097,0.361-0.151s0.184-0.104,0.249-0.147c0.063-0.046,0.114-0.067,0.151-0.067
			c0.026,0,0.049,0.006,0.065,0.018c0.017,0.01,0.03,0.031,0.04,0.063c0.013,0.034,0.021,0.082,0.025,0.141
			C64.165,53.104,64.166,53.183,64.166,53.282z"/>
		<path style="fill:#0054A4;" d="M69.708,51.354c0,0.444-0.056,0.842-0.165,1.19c-0.111,0.352-0.275,0.648-0.493,0.894
			c-0.218,0.244-0.488,0.429-0.81,0.559c-0.32,0.128-0.692,0.191-1.116,0.191c-0.415,0-0.779-0.055-1.09-0.163
			c-0.31-0.109-0.568-0.275-0.774-0.499c-0.208-0.223-0.362-0.508-0.467-0.852c-0.104-0.345-0.155-0.754-0.155-1.226
			c0-0.433,0.056-0.823,0.165-1.171c0.11-0.345,0.275-0.639,0.492-0.883c0.219-0.242,0.489-0.429,0.811-0.558
			c0.321-0.13,0.694-0.195,1.118-0.195c0.406,0,0.765,0.054,1.075,0.161c0.31,0.108,0.568,0.273,0.777,0.498
			c0.209,0.223,0.365,0.504,0.473,0.845C69.654,50.486,69.708,50.89,69.708,51.354z M68.565,51.41c0-0.28-0.021-0.537-0.066-0.767
			c-0.045-0.232-0.118-0.429-0.226-0.593c-0.105-0.163-0.247-0.289-0.424-0.381c-0.178-0.089-0.397-0.135-0.663-0.135
			s-0.49,0.052-0.67,0.151c-0.18,0.101-0.325,0.237-0.435,0.404c-0.11,0.169-0.188,0.364-0.234,0.59
			c-0.044,0.226-0.067,0.464-0.067,0.713c0,0.293,0.021,0.557,0.065,0.79c0.046,0.232,0.119,0.431,0.226,0.598
			c0.103,0.164,0.244,0.29,0.421,0.378c0.176,0.087,0.397,0.13,0.667,0.13c0.266,0,0.49-0.049,0.67-0.147
			c0.18-0.101,0.325-0.234,0.435-0.406c0.109-0.171,0.188-0.371,0.232-0.599C68.544,51.91,68.565,51.666,68.565,51.41z"/>
		<path style="fill:#0054A4;" d="M71.666,53.496c0,0.257-0.044,0.431-0.134,0.517c-0.09,0.09-0.249,0.133-0.482,0.133
			c-0.232,0-0.392-0.043-0.48-0.129c-0.088-0.086-0.131-0.252-0.131-0.495c0-0.26,0.044-0.432,0.134-0.521
			c0.09-0.089,0.252-0.132,0.486-0.132c0.229,0,0.388,0.042,0.477,0.128C71.623,53.084,71.666,53.251,71.666,53.496z"/>
		<path style="fill:#0054A4;" d="M76.328,53.282c0,0.068-0.003,0.127-0.007,0.174c-0.004,0.05-0.01,0.091-0.019,0.126
			c-0.008,0.035-0.019,0.064-0.033,0.09c-0.013,0.024-0.036,0.051-0.066,0.084c-0.03,0.03-0.089,0.072-0.175,0.122
			c-0.088,0.049-0.193,0.096-0.319,0.143c-0.125,0.045-0.27,0.083-0.431,0.113c-0.161,0.031-0.337,0.046-0.522,0.046
			c-0.367,0-0.698-0.056-0.994-0.169c-0.295-0.113-0.546-0.282-0.754-0.507c-0.206-0.225-0.364-0.508-0.476-0.843
			c-0.11-0.337-0.164-0.729-0.164-1.176c0-0.456,0.059-0.858,0.181-1.213c0.123-0.353,0.291-0.649,0.51-0.889
			c0.218-0.241,0.479-0.425,0.783-0.547c0.305-0.125,0.642-0.187,1.008-0.187c0.15,0,0.293,0.014,0.431,0.037
			c0.138,0.024,0.266,0.058,0.383,0.097c0.118,0.041,0.223,0.087,0.315,0.14c0.095,0.053,0.161,0.097,0.197,0.135
			c0.037,0.037,0.064,0.067,0.078,0.093c0.013,0.023,0.024,0.056,0.033,0.095c0.008,0.039,0.014,0.085,0.018,0.138
			c0.005,0.052,0.007,0.115,0.007,0.193c0,0.083-0.004,0.152-0.009,0.211c-0.006,0.058-0.016,0.106-0.028,0.142
			c-0.014,0.035-0.03,0.062-0.051,0.078c-0.02,0.017-0.041,0.025-0.063,0.025c-0.044,0-0.096-0.025-0.158-0.074
			c-0.064-0.047-0.148-0.101-0.247-0.16c-0.103-0.061-0.221-0.113-0.361-0.16c-0.139-0.049-0.304-0.074-0.498-0.074
			c-0.211,0-0.402,0.045-0.569,0.131c-0.167,0.087-0.309,0.211-0.427,0.372c-0.117,0.162-0.206,0.356-0.268,0.586
			c-0.059,0.229-0.089,0.488-0.089,0.773c0,0.314,0.033,0.587,0.097,0.818c0.063,0.229,0.158,0.42,0.277,0.567
			c0.119,0.15,0.266,0.262,0.434,0.336c0.171,0.071,0.362,0.107,0.573,0.107c0.193,0,0.36-0.021,0.502-0.067
			c0.141-0.047,0.262-0.097,0.362-0.151s0.183-0.104,0.248-0.147c0.065-0.046,0.114-0.067,0.151-0.067
			c0.027,0,0.049,0.006,0.066,0.018c0.016,0.01,0.03,0.031,0.041,0.063c0.01,0.034,0.019,0.082,0.024,0.141
			C76.325,53.104,76.328,53.183,76.328,53.282z"/>
		<path style="fill:#0054A4;" d="M81.867,51.354c0,0.444-0.054,0.842-0.166,1.19c-0.109,0.352-0.273,0.648-0.491,0.894
			c-0.218,0.244-0.488,0.429-0.808,0.559c-0.322,0.128-0.694,0.191-1.117,0.191c-0.417,0-0.778-0.055-1.09-0.163
			c-0.311-0.109-0.57-0.275-0.777-0.499c-0.206-0.223-0.361-0.508-0.465-0.852c-0.103-0.345-0.154-0.754-0.154-1.226
			c0-0.433,0.054-0.823,0.163-1.171c0.111-0.345,0.275-0.639,0.495-0.883c0.216-0.242,0.486-0.429,0.808-0.558
			c0.322-0.13,0.695-0.195,1.121-0.195c0.405,0,0.762,0.054,1.072,0.161c0.312,0.108,0.569,0.273,0.78,0.498
			c0.207,0.223,0.364,0.504,0.471,0.845S81.867,50.89,81.867,51.354z M80.726,51.41c0-0.28-0.022-0.537-0.066-0.767
			c-0.046-0.232-0.119-0.429-0.224-0.593c-0.108-0.163-0.25-0.289-0.426-0.381c-0.176-0.089-0.397-0.135-0.662-0.135
			c-0.268,0-0.492,0.052-0.671,0.151c-0.18,0.101-0.323,0.237-0.435,0.404c-0.11,0.169-0.188,0.364-0.232,0.59
			c-0.046,0.226-0.069,0.464-0.069,0.713c0,0.293,0.022,0.557,0.066,0.79c0.044,0.232,0.118,0.431,0.223,0.598
			c0.106,0.164,0.246,0.29,0.424,0.378c0.176,0.087,0.397,0.13,0.666,0.13c0.268,0,0.49-0.049,0.67-0.147
			c0.179-0.101,0.323-0.234,0.434-0.406c0.111-0.171,0.188-0.371,0.234-0.599C80.703,51.91,80.726,51.666,80.726,51.41z"/>
		<path style="fill:#0054A4;" d="M89.023,53.943c0,0.027-0.007,0.053-0.023,0.075c-0.014,0.021-0.042,0.039-0.082,0.053
			c-0.04,0.015-0.092,0.026-0.158,0.035c-0.066,0.006-0.15,0.011-0.252,0.011s-0.184-0.005-0.25-0.011
			c-0.066-0.009-0.117-0.021-0.157-0.035c-0.039-0.014-0.065-0.031-0.083-0.053c-0.018-0.022-0.025-0.048-0.025-0.075v-4.358h-0.007
			l-1.552,4.354c-0.011,0.035-0.031,0.066-0.054,0.089c-0.025,0.022-0.059,0.043-0.103,0.056c-0.043,0.015-0.097,0.022-0.162,0.028
			c-0.066,0.003-0.147,0.005-0.24,0.005c-0.094,0-0.174-0.004-0.24-0.011c-0.066-0.006-0.121-0.019-0.165-0.031
			c-0.04-0.017-0.076-0.035-0.101-0.057c-0.023-0.022-0.04-0.049-0.05-0.079l-1.498-4.354h-0.009v4.358
			c0,0.027-0.006,0.053-0.021,0.075c-0.016,0.021-0.043,0.039-0.087,0.053c-0.04,0.015-0.094,0.026-0.158,0.035
			c-0.063,0.006-0.147,0.011-0.251,0.011c-0.098,0-0.182-0.005-0.248-0.011c-0.064-0.009-0.118-0.021-0.158-0.035
			c-0.04-0.014-0.068-0.031-0.084-0.053c-0.015-0.022-0.022-0.048-0.022-0.075v-4.771c0-0.142,0.038-0.248,0.112-0.322
			c0.074-0.076,0.173-0.111,0.298-0.111h0.713c0.125,0,0.234,0.01,0.326,0.029c0.092,0.021,0.169,0.057,0.236,0.104
			c0.065,0.048,0.121,0.111,0.165,0.188c0.045,0.081,0.083,0.178,0.116,0.294l1.158,3.189h0.017l1.2-3.181
			c0.037-0.117,0.076-0.215,0.118-0.295s0.093-0.145,0.149-0.194c0.056-0.05,0.123-0.086,0.2-0.106
			c0.077-0.02,0.168-0.029,0.27-0.029h0.732c0.074,0,0.138,0.008,0.191,0.027c0.055,0.019,0.1,0.048,0.133,0.085
			c0.035,0.038,0.061,0.083,0.078,0.138c0.019,0.054,0.027,0.115,0.027,0.184V53.943z"/>
	</g>
</g>
</svg>
