<?xml version="1.0" encoding="utf-8"?>
<!-- Generator: Adobe Illustrator 16.0.0, SVG Export Plug-In . SVG Version: 6.00 Build 0)  -->
<!DOCTYPE svg PUBLIC "-//W3C//DTD SVG 1.1//EN" "http://www.w3.org/Graphics/SVG/1.1/DTD/svg11.dtd">
<svg version="1.1" id="Layer_1" xmlns="http://www.w3.org/2000/svg" xmlns:xlink="http://www.w3.org/1999/xlink" x="0px" y="0px"
	 width="54.762px" height="42.748px" viewBox="177.785 30.468 54.762 42.748" enable-background="new 177.785 30.468 54.762 42.748"
	 xml:space="preserve">
<g>
	<path fill="#1E2053" d="M231.176,70.478h-4.651V31.836c0-0.756-0.612-1.368-1.368-1.368s-1.369,0.612-1.369,1.368v5.767
		c-0.004,0-0.008-0.002-0.013-0.002h-3.417c-0.104,0-0.203,0.012-0.3,0.031l-4.425-6.86h-21.148l-4.489,6.832
		c-0.008,0-0.017-0.003-0.024-0.003h-3.416c-0.006,0-0.008,0.002-0.014,0.002v-5.767c0-0.756-0.613-1.368-1.368-1.368
		c-0.756,0-1.369,0.612-1.369,1.368v38.642h-4.652c-0.756,0-1.368,0.61-1.368,1.368c0,0.755,0.612,1.367,1.368,1.367h12.042
		c0.756,0,1.369-0.612,1.369-1.367c0-0.758-0.613-1.368-1.369-1.368h-4.652V57.625h15.534c0.756,0,1.368-0.612,1.368-1.368
		c0-0.757-0.612-1.368-1.368-1.368h-7.612c0.01-0.069,0.021-0.137,0.021-0.208v-1.84h21.162v1.84c0,0.071,0.011,0.139,0.021,0.208
		h-7.412c-0.756,0-1.369,0.611-1.369,1.368c0,0.756,0.613,1.368,1.369,1.368h15.533v12.854h-4.652c-0.756,0-1.369,0.611-1.369,1.368
		c0,0.755,0.613,1.368,1.369,1.368h12.042c0.756,0,1.368-0.613,1.368-1.368C232.545,71.088,231.933,70.478,231.176,70.478
		 M186.542,54.888V41.804c0.006,0,0.008,0.002,0.014,0.002h0.851v1.379V48.9c0,1.72,1.204,3.179,2.874,3.716v2.064
		c0,0.071,0.012,0.139,0.02,0.208H186.542z M192.383,49.294c-1.162,0-2.104-0.941-2.104-2.103s0.941-2.104,2.104-2.104
		c1.159,0,2.102,0.942,2.102,2.104S193.542,49.294,192.383,49.294 M190.924,42.91v-1.313l5.661-8.618h16.921l5.556,8.618v1.313
		H190.924z M217.749,45.088c1.16,0,2.103,0.942,2.103,2.104s-0.94,2.103-2.103,2.103c-1.16,0-2.102-0.941-2.102-2.103
		S216.588,45.088,217.749,45.088 M219.829,54.888c0.01-0.069,0.021-0.137,0.021-0.208v-2.112c1.598-0.575,2.729-1.998,2.729-3.668
		v-5.715v-1.379h1.196c0.005,0,0.009-0.002,0.013-0.002v13.084H219.829z"/>
</g>
</svg>
