<?xml version="1.0" encoding="utf-8"?>
<!-- Generator: Adobe Illustrator 16.0.0, SVG Export Plug-In . SVG Version: 6.00 Build 0)  -->
<!DOCTYPE svg PUBLIC "-//W3C//DTD SVG 1.1//EN" "http://www.w3.org/Graphics/SVG/1.1/DTD/svg11.dtd">
<svg version="1.1" id="Layer_1" xmlns="http://www.w3.org/2000/svg" xmlns:xlink="http://www.w3.org/1999/xlink" x="0px" y="0px"
	 width="39.68px" height="41.286px" viewBox="190.826 31.198 39.68 41.286" enable-background="new 190.826 31.198 39.68 41.286"
	 xml:space="preserve">
<g>
	<path fill="#1E2053" d="M213.03,32.011l-5.99,6.067h-13.478c-1.512,0-2.736,1.225-2.736,2.736v28.933
		c0,1.512,1.225,2.737,2.736,2.737h34.208c1.512,0,2.736-1.226,2.736-2.737V33.934c0-1.512-1.226-2.736-2.736-2.736h-12.793
		C214.245,31.198,213.543,31.491,213.03,32.011 M225.952,38.214h-12.92l3.738-3.789h9.182V38.214L225.952,38.214z"/>
	<path fill="#1E2053" d="M204.616,35.86h-10.712v-1.926c0-1.512,1.225-2.736,2.736-2.736h5.239c1.512,0,2.736,1.225,2.736,2.736
		V35.86L204.616,35.86z"/>
	<path fill="#FFFFFF" d="M205.351,56.078l5.315-10.22l5.316,10.22c1.525,2.936,0.385,6.554-2.551,8.081
		c-2.936,1.527-6.555,0.386-8.082-2.551C204.42,59.819,204.497,57.746,205.351,56.078"/>
</g>
</svg>
