<?xml version="1.0" encoding="iso-8859-1"?>
<!-- Generator: Adobe Illustrator 16.0.0, SVG Export Plug-In . SVG Version: 6.00 Build 0)  -->
<!DOCTYPE svg PUBLIC "-//W3C//DTD SVG 1.1//EN" "http://www.w3.org/Graphics/SVG/1.1/DTD/svg11.dtd">
<svg version="1.1" id="Layer_1" xmlns="http://www.w3.org/2000/svg" xmlns:xlink="http://www.w3.org/1999/xlink" x="0px" y="0px"
	 width="595.28px" height="841.89px" viewBox="0 0 595.28 841.89" style="enable-background:new 0 0 595.28 841.89;"
	 xml:space="preserve">
<path style="fill:#FFFFFF;" d="M259.947,403.317c0-10.586,8.582-19.168,19.168-19.168h36.958c10.586,0,19.168,8.582,19.168,19.168
	v36.958c0,10.586-8.582,19.168-19.168,19.168h-36.958c-10.586,0-19.168-8.582-19.168-19.168V403.317z"/>
<path style="fill:#7BA507;" d="M298.62,392.447c0,0,3.969,8.165,13.19,28.916c5.106,11.486-2.328,23.691-13.691,23.691
	c-11.365,0-17.537-11.924-13.304-22.474C287.527,415.82,298.62,392.447,298.62,392.447z"/>
<defs>
	<filter id="Adobe_OpacityMaskFilter" filterUnits="userSpaceOnUse" x="285.178" y="396.489" width="18.453" height="47.965">
		<feFlood  style="flood-color:white;flood-opacity:1" result="back"/>
		<feBlend  in="SourceGraphic" in2="back" mode="normal"/>
	</filter>
</defs>
<mask maskUnits="userSpaceOnUse" x="285.178" y="396.489" width="18.453" height="47.965" id="SVGID_1_">
	<g style="filter:url(#Adobe_OpacityMaskFilter);">
		<defs>
			<filter id="Adobe_OpacityMaskFilter_1_" filterUnits="userSpaceOnUse" x="285.159" y="396.489" width="18.472" height="47.965">
				<feFlood  style="flood-color:white;flood-opacity:1" result="back"/>
				<feBlend  in="SourceGraphic" in2="back" mode="normal"/>
			</filter>
		</defs>
		<mask maskUnits="userSpaceOnUse" x="285.159" y="396.489" width="18.472" height="47.965" id="SVGID_1_">
			<g style="filter:url(#Adobe_OpacityMaskFilter_1_);">
			</g>
		</mask>
		
			<linearGradient id="SVGID_2_" gradientUnits="userSpaceOnUse" x1="658.7754" y1="420.4712" x2="677.2471" y2="420.4712" gradientTransform="matrix(-1 0 0 1 962.4062 0)">
			<stop  offset="0" style="stop-color:#000000"/>
			<stop  offset="1" style="stop-color:#FFFFFF"/>
		</linearGradient>
		<path style="opacity:0.6;mask:url(#SVGID_1_);fill:url(#SVGID_2_);" d="M298.706,396.489c0,0,2.699,23.311-1.964,31.787
			c-4.661,8.478,0.425,15.258,6.889,15.364c0,0-14.412,4.979-18.195-9.692c0,0-1.309-5.391,1.771-11.075
			C290.8,416.242,296.643,404.965,298.706,396.489z"/>
	</g>
</mask>
<linearGradient id="SVGID_3_" gradientUnits="userSpaceOnUse" x1="658.7754" y1="420.4712" x2="677.2285" y2="420.4712" gradientTransform="matrix(-1 0 0 1 962.4062 0)">
	<stop  offset="0" style="stop-color:#FFFFFF"/>
	<stop  offset="1" style="stop-color:#FFFFFF"/>
</linearGradient>
<path style="opacity:0.5;fill:url(#SVGID_3_);" d="M298.706,396.489c0,0,2.699,23.311-1.964,31.787
	c-4.661,8.478,0.425,15.258,6.889,15.364c0,0-14.412,4.979-18.195-9.692c0,0-1.154-5.833,1.425-11.324
	C290.068,415.796,296.643,404.965,298.706,396.489z"/>
</svg>
