<?xml version="1.0" encoding="iso-8859-1"?>
<!-- Generator: Adobe Illustrator 16.0.0, SVG Export Plug-In . SVG Version: 6.00 Build 0)  -->
<!DOCTYPE svg PUBLIC "-//W3C//DTD SVG 1.1//EN" "http://www.w3.org/Graphics/SVG/1.1/DTD/svg11.dtd">
<svg version="1.1" id="Layer_1" xmlns="http://www.w3.org/2000/svg" xmlns:xlink="http://www.w3.org/1999/xlink" x="0px" y="0px"
	 width="131.25px" height="56.69px" viewBox="0 0 131.25 56.69" style="enable-background:new 0 0 131.25 56.69;"
	 xml:space="preserve">
<g>
	<path style="fill:#00B1F0;" d="M23.251,31.812l2.262-15.802h0.257l6.424,12.966l6.362-12.966h0.253l2.274,15.802h-1.548
		l-1.562-11.301l-5.587,11.301h-0.404l-5.654-11.387l-1.552,11.387H23.251z"/>
	<path style="fill:#00B1F0;" d="M55.585,20.125v11.688h-1.482v-2.009c-0.63,0.767-1.337,1.343-2.122,1.729s-1.642,0.58-2.573,0.58
		c-1.654,0-3.067-0.6-4.238-1.799c-1.171-1.2-1.756-2.659-1.756-4.378c0-1.683,0.591-3.122,1.772-4.318s2.603-1.794,4.265-1.794
		c0.959,0,1.828,0.204,2.605,0.612c0.777,0.408,1.459,1.021,2.046,1.837v-2.148H55.585z M49.575,21.274
		c-0.837,0-1.609,0.206-2.318,0.617c-0.708,0.411-1.271,0.989-1.69,1.732c-0.418,0.744-0.627,1.531-0.627,2.36
		c0,0.823,0.211,1.61,0.633,2.361s0.989,1.336,1.701,1.754c0.712,0.419,1.476,0.628,2.291,0.628c0.823,0,1.602-0.207,2.339-0.622
		c0.736-0.415,1.303-0.977,1.7-1.685s0.596-1.506,0.596-2.394c0-1.352-0.445-2.481-1.336-3.391
		C51.973,21.729,50.877,21.274,49.575,21.274z"/>
	<path style="fill:#00B1F0;" d="M58.991,20.125h1.504v2.148c0.594-0.816,1.277-1.429,2.05-1.837
		c0.772-0.408,1.635-0.612,2.586-0.612c1.66,0,3.08,0.598,4.26,1.794c1.181,1.196,1.771,2.636,1.771,4.318
		c0,1.719-0.585,3.178-1.755,4.378c-1.169,1.199-2.581,1.799-4.233,1.799c-0.93,0-1.785-0.193-2.564-0.58
		c-0.78-0.387-1.485-0.963-2.114-1.729v6.284h-1.504V20.125z M65.006,21.274c-1.3,0-2.396,0.454-3.285,1.362
		c-0.889,0.909-1.334,2.039-1.334,3.391c0,0.888,0.198,1.686,0.595,2.394s0.964,1.27,1.704,1.685s1.52,0.622,2.342,0.622
		c0.807,0,1.566-0.209,2.277-0.628c0.711-0.418,1.277-1.003,1.699-1.754s0.632-1.538,0.632-2.361c0-0.829-0.209-1.616-0.627-2.36
		c-0.418-0.743-0.98-1.321-1.688-1.732S65.842,21.274,65.006,21.274z"/>
</g>
<g>
	<path style="fill:#00B1F0;" d="M113.714,35.877c7.452-7.452,7.452-19.578,0-27.031c-7.453-7.451-19.579-7.451-27.031,0
		c-6.323,6.322-7.28,15.727-2.875,23.068c0,0,0.316,0.531-0.111,0.958c-2.438,2.438-9.752,9.752-9.752,9.752
		c-1.94,1.941-2.402,4.655-0.682,6.376l0.297,0.297c1.721,1.722,4.436,1.259,6.376-0.682c0,0,7.299-7.299,9.731-9.731
		c0.448-0.448,0.979-0.132,0.979-0.132C97.988,43.157,107.392,42.2,113.714,35.877L113.714,35.877z M90.212,32.348
		c-5.507-5.506-5.507-14.466,0-19.973c5.507-5.506,14.466-5.506,19.973,0c5.507,5.507,5.507,14.467,0,19.973
		C104.678,37.855,95.719,37.855,90.212,32.348L90.212,32.348z M90.212,32.348"/>
	<path style="fill:#00B1F0;" d="M100.279,12.994c-3.939,0-7.133,3.34-7.133,7.279c0,5.393,6.118,11.539,7.133,11.539
		c1.032,0,7.132-6.109,7.132-11.539C107.411,16.334,104.218,12.994,100.279,12.994L100.279,12.994z M100.279,24.624
		c-2.364,0-4.279-1.917-4.279-4.28s1.915-4.279,4.279-4.279c2.363,0,4.278,1.916,4.278,4.279S102.643,24.624,100.279,24.624
		L100.279,24.624z M100.279,24.624"/>
</g>
</svg>
