<?xml version="1.0" encoding="iso-8859-1"?>
<!-- Generator: Adobe Illustrator 16.0.0, SVG Export Plug-In . SVG Version: 6.00 Build 0)  -->
<!DOCTYPE svg PUBLIC "-//W3C//DTD SVG 1.1//EN" "http://www.w3.org/Graphics/SVG/1.1/DTD/svg11.dtd">
<svg version="1.1" id="STATION" xmlns="http://www.w3.org/2000/svg" xmlns:xlink="http://www.w3.org/1999/xlink" x="0px" y="0px"
	 width="75px" height="75px" viewBox="0 0 75 75" style="enable-background:new 0 0 75 75;" xml:space="preserve">
<g>
	<defs>
		<rect id="SVGID_1_" width="75" height="75"/>
	</defs>
	<clipPath id="SVGID_2_">
		<use xlink:href="#SVGID_1_"  style="overflow:visible;"/>
	</clipPath>
	<circle style="clip-path:url(#SVGID_2_);fill:#F5F5F5;" cx="37.5" cy="29.436" r="27.436"/>
	<g style="clip-path:url(#SVGID_2_);">
		<path d="M30.009,68.428h-1.097c-0.503,0-0.88-0.161-1.143-0.48c-0.263,0.319-0.628,0.48-1.119,0.48h-5.128
			c-1.177,0-1.942-0.949-1.942-2.456c0-0.582,0.114-1.097,0.354-1.53h0.468c-0.228,0.343-0.343,0.766-0.343,1.279
			c0,1.313,0.605,2.158,1.576,2.158h4.74c0.697,0,1.051-0.41,1.051-1.222v-3.953l-0.183-1.438l0.868-0.218v5.608
			c0,0.812,0.354,1.222,1.062,1.222h0.834V68.428z M25.405,64.75h-3.221v-0.377h0.662v-0.389c0-1.017,0.412-1.52,1.222-1.52
			c0.366,0,0.697,0.137,0.982,0.412l0.012,0.011l-0.126,0.194l-0.011-0.022c-0.194-0.149-0.411-0.218-0.629-0.218
			c-0.662,0-0.993,0.411-0.993,1.234v0.297h1.142l0.469-0.058L25.405,64.75z"/>
		<path d="M33.64,68.428h-0.72c-0.49,0-0.867-0.161-1.142-0.48c-0.264,0.319-0.617,0.48-1.073,0.48h-1.246v-0.549h0.926
			c0.708,0,1.062-0.41,1.062-1.233V65.24l-0.183-1.438l0.879-0.218v3.073c0,0.812,0.343,1.222,1.039,1.222h0.457V68.428z
			 M31.024,61.562c0,0.32-0.171,0.48-0.515,0.48c-0.331,0-0.502-0.16-0.502-0.492c0-0.331,0.171-0.502,0.502-0.502
			C30.796,61.049,31.024,61.277,31.024,61.562z M32.532,61.562c0,0.32-0.172,0.48-0.503,0.48s-0.503-0.16-0.503-0.492
			c0-0.331,0.172-0.502,0.503-0.502C32.304,61.049,32.532,61.277,32.532,61.562z"/>
		<path d="M43.554,68.428H33.354v-0.549h1.689v-5.117l-0.137-1.256l0.937-0.103l-0.114,1.358l-0.092,4.227
			c1.051-2.204,2.388-3.301,4.01-3.301c0.766,0,1.382,0.183,1.862,0.549c0.491,0.354,0.731,0.821,0.731,1.394v2.238h1.312V68.428z
			 M41.532,67.868v-2.033c0-0.994-0.821-1.565-2.136-1.565c-1.336,0-2.536,1.199-3.609,3.609L41.532,67.868z"/>
		<path d="M50.361,68.428h-7.105v-0.549l5.677-0.011c-0.204-0.743-0.605-1.555-1.198-2.456c-0.721-1.085-1.383-1.634-1.977-1.634
			c-0.411,0-0.742,0.343-0.742,0.926c0,0.194,0.046,0.423,0.125,0.661l-0.65,0.092c0.103-1.336,0.799-2.146,1.678-2.146
			c0.743,0,1.509,0.594,2.32,1.771c0.65,0.959,1.108,1.884,1.357,2.787h0.516V68.428z"/>
		<path d="M55.42,63.584l-0.091,1.12v1.759c0,1.313-0.765,1.965-2.297,1.965H50.12v-0.549h1.77c-0.33-0.423-0.502-0.981-0.502-1.69
			c0-0.856,0.24-1.542,0.709-2.056c0.48-0.514,1.119-0.776,1.918-0.776C54.528,63.356,54.998,63.437,55.42,63.584z M54.632,64.772
			l-0.114-0.868c-0.285-0.08-0.537-0.126-0.754-0.126c-0.559,0-0.994,0.218-1.278,0.651c-0.252,0.378-0.378,0.879-0.378,1.531
			c0,1.13,0.458,1.918,1.189,1.918c0.958,0,1.438-0.628,1.438-1.873C54.734,65.697,54.701,65.286,54.632,64.772z"/>
	</g>
	<path style="clip-path:url(#SVGID_2_);fill:#9A9D9F;" d="M45.965,17.06c-0.155-0.156-0.406-0.156-0.562,0
		c-0.155,0.155-0.155,0.408,0,0.562l1.615,1.613c-0.033,0.058-0.057,0.125-0.057,0.194v2.367l1.771,1.771v11.137
		c0,0.475-0.109,0.861-0.323,1.113c-0.16,0.199-0.377,0.302-0.61,0.302c-0.507,0-1.021-0.485-1.021-1.415v-9.146l-2.286-2.283
		v-5.424c0-1.096-0.89-1.986-1.988-1.986h-13.52c-1.098,0-1.986,0.891-1.986,1.986v20.451c0,1.098,0.889,1.987,1.986,1.987h13.52
		c1.099,0,1.988-0.89,1.988-1.987V24.397l1.492,1.491v8.816c0,1.436,0.935,2.212,1.815,2.212c0.473,0,0.907-0.209,1.225-0.587
		c0.331-0.4,0.507-0.963,0.507-1.625V20.623L45.965,17.06z M42.582,23.12c0,1.319-1.066,2.389-2.386,2.389h-8.907
		c-1.318,0-2.385-1.069-2.385-2.389v-2.544c0-1.317,1.066-2.388,2.385-2.388h8.907c1.319,0,2.386,1.07,2.386,2.388V23.12z
		 M48.731,22.445l-0.976-0.979v-1.493l0.976,0.977V22.445z"/>
</g>
</svg>
